<svg width="537" height="337" viewBox="0 0 537 337" fill="none" xmlns="http://www.w3.org/2000/svg">
<path d="M131 168.483C131 133.166 143.83 130 169.486 130C195.143 130 207.969 133.847 207.969 168.483C207.969 203.663 195.143 206.966 169.486 206.966C143.83 206.966 131 202.168 131 168.483Z" fill="#841474"/>
<path d="M192.854 167.332C192.857 162.829 191.56 158.421 189.118 154.638C186.675 150.855 183.192 147.858 179.087 146.008C174.982 144.158 170.43 143.533 165.978 144.208C161.526 144.884 157.364 146.831 153.993 149.815C150.621 152.8 148.184 156.695 146.973 161.032C145.763 165.369 145.831 169.964 147.17 174.263C148.509 178.562 151.061 182.383 154.52 185.266C157.979 188.149 162.197 189.971 166.667 190.514V199.566L183.915 185.689C184.141 185.514 184.367 185.347 184.6 185.151L185.216 184.659H185.144C187.573 182.474 189.516 179.802 190.844 176.816C192.172 173.831 192.857 170.6 192.854 167.332ZM169.668 180.514C167.944 180.518 166.236 180.18 164.643 179.521C163.05 178.862 161.602 177.895 160.384 176.675L162.704 174.354C164.552 176.199 167.056 177.234 169.667 177.234C172.277 177.234 174.781 176.199 176.629 174.354L178.949 176.675C177.732 177.895 176.285 178.862 174.692 179.521C173.099 180.18 171.392 180.517 169.668 180.514Z" fill="white"/>
<path d="M225.385 185.552C224.452 185.552 223.68 185.247 223.07 184.637C222.459 183.99 222.154 183.201 222.154 182.267V160.026C222.154 159.092 222.459 158.321 223.07 157.71C223.68 157.064 224.452 156.741 225.385 156.741C226.319 156.741 227.091 157.064 227.701 157.71C228.311 158.321 228.617 159.092 228.617 160.026V165.088L228.24 161.48C228.635 160.618 229.137 159.864 229.748 159.218C230.394 158.536 231.112 157.979 231.902 157.549C232.691 157.082 233.535 156.741 234.433 156.525C235.33 156.31 236.228 156.202 237.125 156.202C238.202 156.202 239.1 156.508 239.818 157.118C240.572 157.728 240.949 158.446 240.949 159.272C240.949 160.457 240.644 161.318 240.033 161.857C239.423 162.36 238.759 162.611 238.041 162.611C237.359 162.611 236.73 162.485 236.156 162.234C235.617 161.983 234.989 161.857 234.271 161.857C233.625 161.857 232.961 162.018 232.279 162.342C231.632 162.629 231.022 163.095 230.448 163.742C229.909 164.388 229.46 165.196 229.101 166.165C228.778 167.099 228.617 168.212 228.617 169.504V182.267C228.617 183.201 228.311 183.99 227.701 184.637C227.091 185.247 226.319 185.552 225.385 185.552Z" fill="#20225E"/>
<path d="M266.307 156.202C267.24 156.202 268.012 156.508 268.622 157.118C269.233 157.728 269.538 158.518 269.538 159.487V182.267C269.538 183.201 269.233 183.99 268.622 184.637C268.012 185.247 267.24 185.552 266.307 185.552C265.373 185.552 264.601 185.247 263.991 184.637C263.381 183.99 263.076 183.201 263.076 182.267V179.628L264.26 180.113C264.26 180.58 264.009 181.154 263.506 181.836C263.004 182.482 262.322 183.129 261.46 183.775C260.598 184.421 259.575 184.978 258.39 185.444C257.242 185.875 255.985 186.091 254.621 186.091C252.144 186.091 249.9 185.462 247.889 184.206C245.879 182.913 244.281 181.154 243.096 178.928C241.947 176.666 241.373 174.081 241.373 171.173C241.373 168.229 241.947 165.645 243.096 163.419C244.281 161.157 245.861 159.398 247.835 158.141C249.81 156.849 252 156.202 254.405 156.202C255.949 156.202 257.367 156.436 258.66 156.902C259.952 157.369 261.065 157.962 261.999 158.68C262.968 159.398 263.704 160.134 264.207 160.888C264.745 161.606 265.014 162.216 265.014 162.719L263.076 163.419V159.487C263.076 158.554 263.381 157.782 263.991 157.172C264.601 156.525 265.373 156.202 266.307 156.202ZM255.429 180.167C257.008 180.167 258.39 179.772 259.575 178.982C260.76 178.192 261.675 177.115 262.322 175.751C263.004 174.387 263.345 172.861 263.345 171.173C263.345 169.45 263.004 167.906 262.322 166.542C261.675 165.178 260.76 164.101 259.575 163.311C258.39 162.521 257.008 162.126 255.429 162.126C253.885 162.126 252.521 162.521 251.336 163.311C250.151 164.101 249.218 165.178 248.535 166.542C247.889 167.906 247.566 169.45 247.566 171.173C247.566 172.861 247.889 174.387 248.535 175.751C249.218 177.115 250.151 178.192 251.336 178.982C252.521 179.772 253.885 180.167 255.429 180.167Z" fill="#20225E"/>
<path d="M295.405 156.741C296.338 156.741 297.11 157.064 297.721 157.71C298.331 158.321 298.636 159.092 298.636 160.026V182.913C298.636 186.216 298.008 188.837 296.751 190.776C295.531 192.75 293.879 194.169 291.797 195.03C289.715 195.892 287.381 196.323 284.796 196.323C283.647 196.323 282.426 196.233 281.134 196.053C279.842 195.874 278.782 195.605 277.957 195.246C276.88 194.779 276.126 194.186 275.695 193.468C275.3 192.786 275.228 192.05 275.479 191.26C275.803 190.219 276.323 189.501 277.041 189.106C277.759 188.747 278.513 188.711 279.303 188.999C279.877 189.178 280.631 189.447 281.565 189.806C282.498 190.201 283.575 190.399 284.796 190.399C286.447 190.399 287.812 190.165 288.889 189.699C290.002 189.268 290.827 188.514 291.366 187.437C291.94 186.396 292.228 184.96 292.228 183.129V179.521L293.359 180.813C292.748 181.998 291.976 182.985 291.043 183.775C290.145 184.529 289.068 185.103 287.812 185.498C286.555 185.893 285.119 186.091 283.504 186.091C281.601 186.091 279.931 185.66 278.495 184.798C277.095 183.901 276 182.68 275.21 181.136C274.42 179.556 274.025 177.761 274.025 175.751V160.026C274.025 159.092 274.331 158.321 274.941 157.71C275.551 157.064 276.323 156.741 277.257 156.741C278.19 156.741 278.962 157.064 279.572 157.71C280.183 158.321 280.488 159.092 280.488 160.026V173.812C280.488 176.146 280.99 177.797 281.996 178.767C283.037 179.7 284.473 180.167 286.304 180.167C287.56 180.167 288.62 179.933 289.481 179.467C290.343 178.964 291.007 178.246 291.474 177.313C291.94 176.343 292.174 175.176 292.174 173.812V160.026C292.174 159.092 292.479 158.321 293.089 157.71C293.7 157.064 294.472 156.741 295.405 156.741Z" fill="#20225E"/>
<path d="M316.295 156.202C318.342 156.202 320.119 156.418 321.627 156.849C323.17 157.279 324.355 157.89 325.181 158.68C326.043 159.434 326.473 160.349 326.473 161.426C326.473 162.144 326.258 162.826 325.827 163.472C325.396 164.083 324.768 164.388 323.942 164.388C323.368 164.388 322.883 164.316 322.488 164.173C322.129 163.993 321.806 163.778 321.519 163.526C321.232 163.275 320.891 163.042 320.496 162.826C320.137 162.611 319.58 162.449 318.826 162.342C318.108 162.198 317.57 162.126 317.211 162.126C315.38 162.126 313.818 162.521 312.526 163.311C311.269 164.101 310.3 165.178 309.617 166.542C308.935 167.87 308.594 169.414 308.594 171.173C308.594 172.897 308.935 174.44 309.617 175.805C310.336 177.133 311.305 178.192 312.526 178.982C313.782 179.772 315.218 180.167 316.834 180.167C317.731 180.167 318.503 180.113 319.149 180.005C319.796 179.898 320.334 179.736 320.765 179.521C321.268 179.233 321.716 178.928 322.111 178.605C322.506 178.282 323.099 178.12 323.888 178.12C324.822 178.12 325.54 178.426 326.043 179.036C326.545 179.61 326.797 180.328 326.797 181.19C326.797 182.088 326.294 182.913 325.289 183.667C324.283 184.385 322.955 184.978 321.304 185.444C319.688 185.875 317.929 186.091 316.026 186.091C313.19 186.091 310.73 185.444 308.648 184.152C306.566 182.824 304.95 181.028 303.801 178.767C302.688 176.505 302.132 173.974 302.132 171.173C302.132 168.229 302.724 165.645 303.909 163.419C305.13 161.157 306.799 159.398 308.917 158.141C311.072 156.849 313.531 156.202 316.295 156.202Z" fill="#20225E"/>
<path d="M344.711 156.202C347.295 156.202 349.252 156.759 350.58 157.872C351.945 158.985 352.878 160.475 353.381 162.342C353.883 164.173 354.135 166.219 354.135 168.481V182.267C354.135 183.201 353.83 183.99 353.219 184.637C352.609 185.247 351.837 185.552 350.904 185.552C349.97 185.552 349.198 185.247 348.588 184.637C347.978 183.99 347.672 183.201 347.672 182.267V168.481C347.672 167.296 347.529 166.237 347.242 165.303C346.954 164.334 346.434 163.562 345.68 162.988C344.926 162.413 343.849 162.126 342.449 162.126C341.084 162.126 339.918 162.413 338.948 162.988C337.979 163.562 337.243 164.334 336.74 165.303C336.274 166.237 336.04 167.296 336.04 168.481V182.267C336.04 183.201 335.735 183.99 335.125 184.637C334.514 185.247 333.743 185.552 332.809 185.552C331.876 185.552 331.104 185.247 330.493 184.637C329.883 183.99 329.578 183.201 329.578 182.267V148.986C329.578 148.053 329.883 147.281 330.493 146.67C331.104 146.024 331.876 145.701 332.809 145.701C333.743 145.701 334.514 146.024 335.125 146.67C335.735 147.281 336.04 148.053 336.04 148.986V162.342L335.232 162.18C335.556 161.57 336.004 160.923 336.579 160.241C337.153 159.523 337.853 158.859 338.679 158.249C339.505 157.638 340.42 157.154 341.426 156.795C342.431 156.4 343.526 156.202 344.711 156.202Z" fill="#20225E"/>
<path d="M382.566 156.202C383.499 156.202 384.271 156.508 384.881 157.118C385.492 157.728 385.797 158.518 385.797 159.487V182.267C385.797 183.201 385.492 183.99 384.881 184.637C384.271 185.247 383.499 185.552 382.566 185.552C381.632 185.552 380.86 185.247 380.25 184.637C379.64 183.99 379.334 183.201 379.334 182.267V179.628L380.519 180.113C380.519 180.58 380.268 181.154 379.765 181.836C379.263 182.482 378.581 183.129 377.719 183.775C376.857 184.421 375.834 184.978 374.649 185.444C373.5 185.875 372.244 186.091 370.88 186.091C368.402 186.091 366.159 185.462 364.148 184.206C362.138 182.913 360.54 181.154 359.355 178.928C358.206 176.666 357.632 174.081 357.632 171.173C357.632 168.229 358.206 165.645 359.355 163.419C360.54 161.157 362.12 159.398 364.094 158.141C366.069 156.849 368.259 156.202 370.664 156.202C372.208 156.202 373.626 156.436 374.919 156.902C376.211 157.369 377.324 157.962 378.257 158.68C379.227 159.398 379.963 160.134 380.465 160.888C381.004 161.606 381.273 162.216 381.273 162.719L379.334 163.419V159.487C379.334 158.554 379.64 157.782 380.25 157.172C380.86 156.525 381.632 156.202 382.566 156.202ZM371.687 180.167C373.267 180.167 374.649 179.772 375.834 178.982C377.019 178.192 377.934 177.115 378.581 175.751C379.263 174.387 379.604 172.861 379.604 171.173C379.604 169.45 379.263 167.906 378.581 166.542C377.934 165.178 377.019 164.101 375.834 163.311C374.649 162.521 373.267 162.126 371.687 162.126C370.144 162.126 368.779 162.521 367.595 163.311C366.41 164.101 365.476 165.178 364.794 166.542C364.148 167.906 363.825 169.45 363.825 171.173C363.825 172.861 364.148 174.387 364.794 175.751C365.476 177.115 366.41 178.192 367.595 178.982C368.779 179.772 370.144 180.167 371.687 180.167Z" fill="#20225E"/>
<path d="M391.238 157.279H404.002C404.863 157.279 405.581 157.567 406.156 158.141C406.73 158.715 407.017 159.434 407.017 160.295C407.017 161.121 406.73 161.821 406.156 162.395C405.581 162.934 404.863 163.203 404.002 163.203H391.238C390.377 163.203 389.659 162.916 389.084 162.342C388.51 161.767 388.223 161.049 388.223 160.187C388.223 159.362 388.51 158.68 389.084 158.141C389.659 157.567 390.377 157.279 391.238 157.279ZM397.001 150.548C397.934 150.548 398.688 150.871 399.263 151.517C399.873 152.127 400.178 152.899 400.178 153.833V177.797C400.178 178.3 400.268 178.713 400.447 179.036C400.663 179.359 400.932 179.592 401.255 179.736C401.614 179.88 401.991 179.951 402.386 179.951C402.817 179.951 403.212 179.88 403.571 179.736C403.93 179.556 404.343 179.467 404.809 179.467C405.312 179.467 405.761 179.7 406.156 180.167C406.587 180.634 406.802 181.28 406.802 182.106C406.802 183.111 406.245 183.937 405.133 184.583C404.055 185.229 402.889 185.552 401.632 185.552C400.878 185.552 400.034 185.498 399.101 185.391C398.203 185.247 397.342 184.942 396.516 184.475C395.726 183.972 395.062 183.218 394.524 182.213C393.985 181.208 393.716 179.826 393.716 178.067V153.833C393.716 152.899 394.021 152.127 394.631 151.517C395.277 150.871 396.067 150.548 397.001 150.548Z" fill="#20225E"/>
<rect y="65" width="536" height="65" fill="#EFEFEF" fill-opacity="0.53"/>
<rect y="207" width="537" height="65" fill="#EFEFEF" fill-opacity="0.53"/>
<rect x="131" width="337" height="65" transform="rotate(90 131 0)" fill="white" fill-opacity="0.6"/>
<rect x="472" width="337" height="65" transform="rotate(90 472 0)" fill="white" fill-opacity="0.6"/>
<path d="M97.2415 21.6364L98.2045 23.3352L99.1761 21.6364H100.105L98.7443 23.8182L100.116 26H99.1875L98.2045 24.3693L97.2244 26H96.2926L97.6506 23.8182L96.3097 21.6364H97.2415Z" fill="#A4A4A4"/>
<path d="M68.25 36.775L66 35.701V38.299L68.25 37.225V36.775ZM128.75 37.225L131 38.299V35.701L128.75 36.775V37.225ZM68.025 37.225H128.975V36.775H68.025V37.225Z" fill="black"/>
<path d="M438.241 19.6364L439.205 21.3352L440.176 19.6364H441.105L439.744 21.8182L441.116 24H440.188L439.205 22.3693L438.224 24H437.293L438.651 21.8182L437.31 19.6364H438.241Z" fill="#A4A4A4"/>
<path d="M409.25 34.775L407 33.701V36.299L409.25 35.225V34.775ZM469.75 35.225L472 36.299V33.701L469.75 34.775V35.225ZM409.025 35.225H469.975V34.775H409.025V35.225Z" fill="black"/>
<path d="M31.775 269.75L30.701 272H33.299L32.225 269.75H31.775ZM32.225 209.25L33.299 207H30.701L31.775 209.25H32.225ZM32.225 269.975V209.025H31.775L31.775 269.975H32.225Z" fill="black"/>
<path d="M41.2415 238.136L42.2045 239.835L43.1761 238.136H44.1051L42.7443 240.318L44.1165 242.5H43.1875L42.2045 240.869L41.2244 242.5H40.2926L41.6506 240.318L40.3097 238.136H41.2415Z" fill="#A4A4A4"/>
<path d="M504.775 127.75L503.701 130H506.299L505.225 127.75H504.775ZM505.225 67.25L506.299 65H503.701L504.775 67.25H505.225ZM505.225 127.975V67.025H504.775V127.975H505.225Z" fill="black"/>
<path d="M514.241 96.1364L515.205 97.8352L516.176 96.1364H517.105L515.744 98.3182L517.116 100.5H516.188L515.205 98.8693L514.224 100.5H513.293L514.651 98.3182L513.31 96.1364H514.241Z" fill="#A4A4A4"/>
<line x1="131.125" y1="5.44711e-09" x2="131.125" y2="337" stroke="#A4A4A4" stroke-width="0.25" stroke-dasharray="2.5 2.5"/>
<line x1="407.125" y1="5.44711e-09" x2="407.125" y2="337" stroke="#A4A4A4" stroke-width="0.25" stroke-dasharray="2.5 2.5"/>
<line x1="472.125" y1="5.44711e-09" x2="472.125" y2="337" stroke="#A4A4A4" stroke-width="0.25" stroke-dasharray="2.5 2.5"/>
<line x1="537" y1="272.125" x2="-1.0909e-08" y2="272.125" stroke="#A4A4A4" stroke-width="0.25" stroke-dasharray="2.5 2.5"/>
<line x1="536" y1="65.125" x2="-1.00829e-08" y2="65.1249" stroke="#A4A4A4" stroke-width="0.25" stroke-dasharray="2.5 2.5"/>
<line x1="537" y1="207.125" x2="-1.00844e-08" y2="207.125" stroke="#A4A4A4" stroke-width="0.25" stroke-dasharray="2.5 2.5"/>
<line x1="536" y1="130.125" y2="130.125" stroke="#A4A4A4" stroke-width="0.25" stroke-dasharray="2.5 2.5"/>
<line x1="66.125" y1="5.44711e-09" x2="66.125" y2="337" stroke="#A4A4A4" stroke-width="0.25" stroke-dasharray="2.5 2.5"/>
</svg>
