<svg width="339" height="337" viewBox="0 0 339 337" fill="none" xmlns="http://www.w3.org/2000/svg">
<rect y="65" width="339" height="65" fill="#EFEFEF" fill-opacity="0.53"/>
<rect y="207" width="339" height="65" fill="#EFEFEF" fill-opacity="0.53"/>
<rect x="274" width="337" height="65" transform="rotate(90 274 0)" fill="white" fill-opacity="0.6"/>
<rect x="132" width="337" height="65" transform="rotate(90 132 0)" fill="white" fill-opacity="0.6"/>
<path d="M240.241 19.6364L241.205 21.3352L242.176 19.6364H243.105L241.744 21.8182L243.116 24H242.188L241.205 22.3693L240.224 24H239.293L240.651 21.8182L239.31 19.6364H240.241Z" fill="#A4A4A4"/>
<path d="M211.25 34.775L209 33.701V36.299L211.25 35.225V34.775ZM271.75 35.225L274 36.299V33.701L271.75 34.775V35.225ZM211.025 35.225H271.975V34.775H211.025V35.225Z" fill="black"/>
<path d="M306.775 127.75L305.701 130H308.299L307.225 127.75H306.775ZM307.225 67.25L308.299 65H305.701L306.775 67.25H307.225ZM307.225 127.975V67.025H306.775V127.975H307.225Z" fill="black"/>
<path d="M316.241 96.1364L317.205 97.8352L318.176 96.1364H319.105L317.744 98.3182L319.116 100.5H318.188L317.205 98.8693L316.224 100.5H315.293L316.651 98.3182L315.31 96.1364H316.241Z" fill="#A4A4A4"/>
<line x1="209.125" y1="5.44711e-09" x2="209.125" y2="337" stroke="#A4A4A4" stroke-width="0.25" stroke-dasharray="2.5 2.5"/>
<line x1="67.125" y1="5.44711e-09" x2="67.125" y2="337" stroke="#A4A4A4" stroke-width="0.25" stroke-dasharray="2.5 2.5"/>
<line x1="274.125" y1="5.44711e-09" x2="274.125" y2="337" stroke="#A4A4A4" stroke-width="0.25" stroke-dasharray="2.5 2.5"/>
<line x1="132.125" y1="5.44711e-09" x2="132.125" y2="337" stroke="#A4A4A4" stroke-width="0.25" stroke-dasharray="2.5 2.5"/>
<line x1="339" y1="65.125" x2="-1.00829e-08" y2="65.125" stroke="#A4A4A4" stroke-width="0.25" stroke-dasharray="2.5 2.5"/>
<line x1="339" y1="207.125" x2="-1.00829e-08" y2="207.125" stroke="#A4A4A4" stroke-width="0.25" stroke-dasharray="2.5 2.5"/>
<line x1="339" y1="130.125" x2="-1.00829e-08" y2="130.125" stroke="#A4A4A4" stroke-width="0.25" stroke-dasharray="2.5 2.5"/>
<line x1="339" y1="272.125" x2="-1.00829e-08" y2="272.125" stroke="#A4A4A4" stroke-width="0.25" stroke-dasharray="2.5 2.5"/>
<path d="M132 168.483C132 133.166 144.83 130 170.486 130C196.143 130 208.969 133.847 208.969 168.483C208.969 203.663 196.143 206.966 170.486 206.966C144.83 206.966 132 202.168 132 168.483Z" fill="#841474"/>
<path d="M193.854 167.332C193.857 162.829 192.56 158.421 190.118 154.638C187.675 150.855 184.192 147.858 180.087 146.008C175.982 144.158 171.43 143.533 166.978 144.208C162.526 144.884 158.364 146.831 154.993 149.815C151.621 152.8 149.184 156.695 147.973 161.032C146.763 165.369 146.831 169.964 148.17 174.263C149.509 178.562 152.061 182.383 155.52 185.266C158.979 188.149 163.197 189.971 167.667 190.514V199.566L184.915 185.689C185.141 185.514 185.367 185.347 185.6 185.151L186.216 184.659H186.144C188.573 182.474 190.516 179.802 191.844 176.816C193.172 173.831 193.857 170.6 193.854 167.332ZM170.668 180.514C168.944 180.518 167.236 180.18 165.643 179.521C164.05 178.862 162.602 177.895 161.384 176.675L163.704 174.354C165.552 176.199 168.056 177.234 170.667 177.234C173.277 177.234 175.781 176.199 177.629 174.354L179.949 176.675C178.732 177.895 177.285 178.862 175.692 179.521C174.099 180.18 172.392 180.517 170.668 180.514Z" fill="white"/>
</svg>
