<svg width="77" height="77" viewBox="0 0 77 77" fill="none" xmlns="http://www.w3.org/2000/svg">
<path d="M0 38.4829C0 3.16556 12.8299 0 38.4863 0C64.1427 0 76.9692 3.84658 76.9692 38.4829C76.9692 73.6633 64.1427 76.9658 38.4863 76.9658C12.8299 76.9658 0 72.1678 0 38.4829Z" fill="#841474"/>
<path d="M61.854 37.332C61.8574 32.8292 60.56 28.4212 58.1177 24.6383C55.6754 20.8553 52.1923 17.8585 48.0872 16.0081C43.9822 14.1578 39.43 13.5327 34.9781 14.2081C30.5262 14.8836 26.3643 16.8307 22.9927 19.8154C19.6212 22.8 17.1837 26.6951 15.9734 31.0322C14.763 35.3693 14.8314 39.9638 16.1703 44.2629C17.5091 48.5621 20.0614 52.383 23.5202 55.266C26.9791 58.149 31.1971 59.9715 35.6671 60.5141V69.5659L52.9151 55.6888C53.141 55.5142 53.3669 55.3466 53.5996 55.1515L54.2156 54.6587H54.1437C56.5733 52.4738 58.5155 49.8017 59.844 46.8164C61.1724 43.8311 61.8573 40.5995 61.854 37.332ZM38.6684 50.5144C36.9442 50.5177 35.2363 50.1802 33.6429 49.5213C32.0495 48.8623 30.6021 47.8949 29.3839 46.6746L31.7042 44.3544C33.552 46.1986 36.056 47.2344 38.6667 47.2344C41.2774 47.2344 43.7814 46.1986 45.6292 44.3544L47.9495 46.6746C46.7318 47.8946 45.285 48.8619 43.6922 49.5209C42.0994 50.1798 40.3921 50.5175 38.6684 50.5144Z" fill="white"/>
</svg>
