<svg width="303" height="87" viewBox="0 0 303 87" fill="none" xmlns="http://www.w3.org/2000/svg">
<g clip-path="url(#clip0_1_106)">
<path d="M142.491 52.0919H136.367V41.4591C136.418 38.1181 135.571 34.8257 133.917 31.9325C132.257 29.0575 129.881 26.6723 127.025 25.0146C124.14 23.3024 120.85 22.4123 117.504 22.439H108.8C107.698 22.4433 106.643 22.8888 105.865 23.6779C105.088 24.467 104.651 25.5354 104.651 26.6492C104.651 27.7629 105.088 28.8313 105.865 29.6204C106.643 30.4095 107.698 30.855 108.8 30.8593H117.423C119.272 30.8435 121.091 31.3403 122.681 32.2958C124.259 33.2222 125.57 34.548 126.486 36.1427C127.429 37.7507 127.915 39.5902 127.891 41.4591V52.0919H91.962L90.4758 56.3516L91.962 60.5123H142.589L144.026 56.3516L142.491 52.0919Z" fill="#1E041C"/>
<path d="M108.212 77.4355H117.374V81.5136C117.372 82.1148 117.51 82.708 117.775 83.246C118.041 83.784 118.426 84.252 118.902 84.6127C119.378 84.9734 119.93 85.2169 120.515 85.3238C121.101 85.4307 121.702 85.3981 122.273 85.2285C123.068 84.9933 123.766 84.5044 124.264 83.8349C124.761 83.1653 125.031 82.351 125.033 81.5136V70.2369H108.212C107.267 70.2369 106.362 70.6161 105.694 71.2911C105.026 71.9661 104.651 72.8816 104.651 73.8362C104.649 74.3095 104.74 74.7785 104.918 75.2162C105.096 75.6539 105.358 76.0515 105.689 76.3862C106.02 76.7209 106.414 76.9859 106.847 77.166C107.28 77.3461 107.743 77.4377 108.212 77.4355Z" fill="#841474"/>
<path d="M47.4588 25.4439H34.3121C32.3278 25.4439 30.7192 27.0664 30.7192 29.0679C30.7192 31.0695 32.3278 32.692 34.3121 32.692H47.4588C49.4431 32.692 51.0517 31.0695 51.0517 29.0679C51.0517 27.0664 49.4431 25.4439 47.4588 25.4439Z" fill="#1E041C"/>
<path d="M93.448 56.368L91.9128 60.5122C89.1221 60.5161 86.3694 59.8579 83.8762 58.5904C81.3829 57.3229 79.2187 55.4816 77.5576 53.2145C76.0779 55.1222 74.2549 56.7299 72.1846 57.953C69.3205 59.6572 66.0519 60.5418 62.7287 60.5122H18.9117C15.5885 60.5418 12.3199 59.6572 9.45583 57.953C6.60277 56.2847 4.2278 53.895 2.564 51.0186C0.867678 48.1261 -0.0186221 44.8216 -1.82153e-05 41.459V31.239C-1.82153e-05 30.1092 0.443902 29.0258 1.23408 28.2269C2.02427 27.4281 3.09598 26.9793 4.21347 26.9793C5.33096 26.9793 6.40267 27.4281 7.19286 28.2269C7.98304 29.0258 8.42696 30.1092 8.42696 31.239V41.459C8.41615 43.3263 8.89574 45.163 9.81676 46.7816C10.7378 48.4002 12.0672 49.7426 13.6693 50.6719C15.2544 51.6252 17.0673 52.1219 18.9117 52.1083H62.3041C64.1091 52.1335 65.8944 51.7261 67.5138 50.9195C69.2332 50.0259 70.6752 48.6697 71.6809 47.0004C72.6865 45.3311 73.2169 43.4135 73.2134 41.459V31.206C73.2134 30.085 73.6539 29.0099 74.438 28.2172C75.222 27.4246 76.2854 26.9793 77.3942 26.9793C77.9501 26.9683 78.5026 27.0695 79.0193 27.277C79.536 27.4845 80.0066 27.7941 80.4035 28.1877C80.8004 28.5812 81.1157 29.0509 81.3309 29.5692C81.5461 30.0874 81.6568 30.6439 81.6567 31.206V41.459C81.6804 43.3364 82.1749 45.1769 83.0939 46.8084C83.985 48.4046 85.2745 49.7367 86.8338 50.6719C88.3888 51.6256 90.1757 52.123 91.9945 52.1083L93.448 56.368Z" fill="#1E041C"/>
<path d="M150.183 70.5341H137.036C135.052 70.5341 133.443 72.1566 133.443 74.1581C133.443 76.1596 135.052 77.7822 137.036 77.7822H150.183C152.167 77.7822 153.776 76.1596 153.776 74.1581C153.776 72.1566 152.167 70.5341 150.183 70.5341Z" fill="#1E041C"/>
<path d="M157.091 26.9794C156.537 26.9772 155.988 27.0859 155.476 27.2992C154.964 27.5125 154.499 27.8262 154.107 28.2222C153.715 28.6182 153.405 29.0886 153.194 29.6064C152.983 30.1242 152.876 30.6791 152.878 31.2391V41.4591C152.892 43.3193 152.421 45.1503 151.512 46.7677C150.603 48.3852 149.288 49.7318 147.701 50.672C146.11 51.6248 144.291 52.1161 142.442 52.0919H142.295L140.956 56.3517L142.083 60.5123H142.377C145.716 60.5476 149.002 59.6629 151.881 57.9532C154.728 56.2695 157.101 53.8764 158.773 51.0022C160.466 48.1152 161.347 44.8154 161.321 41.4591V31.2391C161.323 30.6805 161.216 30.127 161.006 29.6102C160.796 29.0935 160.487 28.6238 160.097 28.228C159.707 27.8323 159.244 27.5182 158.734 27.304C158.223 27.0897 157.676 26.9794 157.124 26.9794H157.091Z" fill="#1E041C"/>
<path d="M179.727 5.87886C179.727 3.52628 177.84 1.61914 175.513 1.61914C173.186 1.61914 171.3 3.52628 171.3 5.87886V56.2525C171.3 58.6051 173.186 60.5122 175.513 60.5122C177.84 60.5122 179.727 58.6051 179.727 56.2525V5.87886Z" fill="#1E041C"/>
<path d="M194.523 35.8951C193.967 35.8929 193.416 36.002 192.902 36.2161C192.387 36.4302 191.92 36.7451 191.527 37.1427C191.134 37.5402 190.822 38.0125 190.611 38.5323C190.399 39.0521 190.291 39.6091 190.293 40.1713V51.0517C190.293 51.1508 190.293 51.2333 190.293 51.3324V58.5475C190.251 60.8158 189.684 63.0427 188.637 65.0496C187.591 67.0566 186.094 68.7879 184.267 70.1049C183.608 70.629 183.131 71.3514 182.905 72.1676C182.679 72.9838 182.715 73.8515 183.009 74.6453C183.233 75.2142 183.586 75.7225 184.038 76.13C184.49 76.5376 185.03 76.8331 185.614 76.9933C186.199 77.1535 186.812 77.1739 187.406 77.0529C188 76.932 188.558 76.6729 189.035 76.2963C195.503 71.3322 198.731 65.3829 198.72 58.4484V51.1508V40.1713C198.722 39.6119 198.615 39.0575 198.405 38.5399C198.196 38.0222 197.887 37.5514 197.497 37.1544C197.108 36.7573 196.644 36.4417 196.134 36.2256C195.624 36.0095 195.076 35.8972 194.523 35.8951Z" fill="#1E041C"/>
<path d="M194.523 29.0761C193.405 29.0761 192.334 29.5249 191.543 30.3237C190.753 31.1226 190.309 32.2061 190.309 33.3358V47.3202C190.309 47.8818 190.419 48.4379 190.631 48.9567C190.844 49.4755 191.155 49.9469 191.548 50.344C191.941 50.7411 192.407 51.0561 192.92 51.271C193.434 51.4859 193.984 51.5965 194.539 51.5965C195.661 51.5965 196.737 51.1459 197.53 50.344C198.323 49.542 198.769 48.4544 198.769 47.3202V36.4233C198.778 36.3355 198.778 36.2469 198.769 36.1591V33.3358C198.771 32.773 198.663 32.2154 198.45 31.6954C198.236 31.1754 197.923 30.7035 197.528 30.3071C197.133 29.9106 196.664 29.5976 196.148 29.3863C195.632 29.175 195.079 29.0695 194.523 29.0761Z" fill="#1E041C"/>
</g>
<path d="M215.02 43.4981C215.02 3.5781 229.522 0 258.522 0C287.522 0 302.02 4.34787 302.02 43.4981C302.02 83.2633 287.522 86.9961 258.522 86.9961C229.522 86.9961 215.02 81.5729 215.02 43.4981Z" fill="#841474"/>
<path d="M284.935 42.1971C284.939 37.1074 283.472 32.125 280.712 27.8491C277.951 23.5731 274.014 20.1857 269.374 18.0942C264.734 16.0028 259.589 15.2962 254.557 16.0597C249.525 16.8231 244.82 19.024 241.009 22.3976C237.198 25.7713 234.443 30.174 233.075 35.0763C231.707 39.9787 231.784 45.1718 233.298 50.0313C234.811 54.8907 237.696 59.2095 241.606 62.4683C245.515 65.727 250.283 67.787 255.336 68.4003V78.6318L274.831 62.9462C275.087 62.7489 275.342 62.5593 275.605 62.3388L276.301 61.7818H276.22C278.966 59.3122 281.162 56.2919 282.663 52.9175C284.165 49.5432 284.939 45.8904 284.935 42.1971ZM258.728 57.0974C256.779 57.1012 254.849 56.7197 253.048 55.9749C251.246 55.2301 249.61 54.1366 248.234 52.7573L250.856 50.1346C252.945 52.2192 255.775 53.39 258.726 53.39C261.677 53.39 264.507 52.2192 266.596 50.1346L269.219 52.7573C267.842 54.1363 266.207 55.2296 264.406 55.9745C262.606 56.7193 260.676 57.1009 258.728 57.0974Z" fill="white"/>
<defs>
<clipPath id="clip0_1_106">
<rect width="198.769" height="83.758" fill="white" transform="translate(0 1.61908)"/>
</clipPath>
</defs>
</svg>
