<svg width="50" height="45" viewBox="0 0 50 45" fill="none" xmlns="http://www.w3.org/2000/svg">
<g clip-path="url(#clip0_1_166)">
<path d="M35.45 7.92181e-05C34.928 0.011724 34.4221 0.182701 34 0.490079C24.15 7.53008 12 9.00008 4.81 9.00008H2.54C1.86808 9.00007 1.22353 9.26631 0.747475 9.74049C0.271419 10.2147 0.00264536 10.8582 0 11.5301L0 22.1001C0 22.7737 0.267606 23.4198 0.743949 23.8961C1.22029 24.3725 1.86635 24.6401 2.54 24.6401H2.66C3.31 24.6401 4.03 24.5901 4.81 24.5901H4.91L6.6 41.0001C6.71102 42.0477 7.2054 43.0173 7.98809 43.7225C8.77078 44.4276 9.78651 44.8185 10.84 44.8201H17.28C17.8755 44.8205 18.4644 44.6957 19.0085 44.4539C19.5527 44.2122 20.04 43.8587 20.4388 43.4165C20.8376 42.9743 21.1391 42.4533 21.3236 41.8871C21.5082 41.321 21.5716 40.7224 21.51 40.1301L20.13 26.6801C25.0949 28.0026 29.7893 30.1857 34 33.1301C34.435 33.4502 34.9599 33.6252 35.5 33.6301C36.1667 33.6196 36.8025 33.3473 37.2702 32.8721C37.738 32.3969 38.0001 31.7569 38 31.0901V2.54008C38.0013 2.2053 37.9362 1.87359 37.8084 1.56417C37.6806 1.25475 37.4927 0.973766 37.2555 0.737509C37.0183 0.501251 36.7366 0.314416 36.4267 0.187832C36.1167 0.061247 35.7848 -0.0025699 35.45 7.92181e-05ZM16.45 39.8101H11.45L10 24.8301C11.58 24.9801 13.27 25.1901 15 25.5101L16.45 39.8101ZM33 26.6001C22.1 20.4001 10.17 19.6001 5 19.6001V14.0001C10.17 14.0001 22.1 13.1801 33 7.00008V26.6001Z" fill="#1E041C"/>
<path d="M41 10.82C41.0008 11.3112 41.1464 11.7914 41.4185 12.2005C41.6906 12.6095 42.0772 12.9293 42.53 13.12C43.2606 13.4229 43.885 13.9356 44.3243 14.5932C44.7636 15.2509 44.998 16.0241 44.998 16.815C44.998 17.6058 44.7636 18.379 44.3243 19.0367C43.885 19.6944 43.2606 20.207 42.53 20.51C42.0756 20.6984 41.6876 21.0177 41.4151 21.4272C41.1427 21.8368 40.9982 22.3181 41 22.81C40.997 23.2162 41.0934 23.6169 41.2809 23.9773C41.4683 24.3377 41.7411 24.6468 42.0754 24.8775C42.4097 25.1083 42.7954 25.2538 43.1989 25.3013C43.6023 25.3487 44.0113 25.2968 44.39 25.15C46.0499 24.4766 47.4712 23.3233 48.4719 21.8375C49.4725 20.3518 50.007 18.6013 50.007 16.81C50.007 15.0187 49.4725 13.2681 48.4719 11.7824C47.4712 10.2966 46.0499 9.14327 44.39 8.46995C44.0104 8.32533 43.6013 8.27539 43.198 8.32446C42.7948 8.37352 42.4095 8.52011 42.0757 8.75155C41.7418 8.98298 41.4694 9.29228 41.282 9.65268C41.0945 10.0131 40.9978 10.4137 41 10.82Z" fill="#841474"/>
</g>
<defs>
<clipPath id="clip0_1_166">
<rect width="50" height="44.81" fill="white"/>
</clipPath>
</defs>
</svg>
