<svg width="47" height="50" viewBox="0 0 47 50" fill="none" xmlns="http://www.w3.org/2000/svg">
<g clip-path="url(#clip0_1_171)">
<path d="M46.82 42.12L45.54 36.05C45.2076 34.4524 44.5529 32.9393 43.6158 31.6033C42.6787 30.2673 41.479 29.1365 40.09 28.28L32.4 23.52C33.5943 21.9263 34.3371 20.0401 34.55 18.06L35.16 12.31C35.3254 10.7583 35.1627 9.18906 34.6824 7.70428C34.2021 6.2195 33.4149 4.85231 32.3719 3.69148C31.329 2.53065 30.0536 1.60212 28.6285 0.966156C27.2034 0.330194 25.6605 0.00101985 24.1 3.34475e-07H22.87C21.3086 -0.000382431 19.7646 0.32776 18.3384 0.963104C16.9121 1.59845 15.6354 2.52678 14.5914 3.68777C13.5474 4.84875 12.7593 6.21642 12.2784 7.7019C11.7974 9.18738 11.6345 10.7574 11.8 12.31L12.42 18.06C12.6329 20.0401 13.3757 21.9263 14.57 23.52L6.87 28.28C5.48099 29.1365 4.28128 30.2673 3.3442 31.6033C2.40712 32.9393 1.75238 34.4524 1.42 36.05L0.14 42.12C-0.0609892 43.0712 -0.0470538 44.0553 0.180789 45.0004C0.408632 45.9455 0.844633 46.8278 1.45697 47.5829C2.0693 48.338 2.84252 48.9469 3.72018 49.3651C4.59785 49.7832 5.55781 50.0002 6.53 50H40.43C41.4022 50.0002 42.3622 49.7832 43.2398 49.3651C44.1175 48.9469 44.8907 48.338 45.503 47.5829C46.1154 46.8278 46.5514 45.9455 46.7792 45.0004C47.0071 44.0553 47.021 43.0712 46.82 42.12ZM18.31 7C18.8855 6.36319 19.5895 5.85565 20.3755 5.5109C21.1615 5.16615 22.0117 4.99202 22.87 5H24.1C24.9599 4.9992 25.8102 5.1796 26.5957 5.52944C27.3811 5.87928 28.0841 6.3907 28.6587 7.03039C29.2332 7.67007 29.6666 8.42365 29.9304 9.24202C30.1943 10.0604 30.2827 10.9252 30.19 11.78L29.58 17.52C29.4186 19.0239 28.7069 20.415 27.5818 21.4258C26.4566 22.4367 24.9975 22.9959 23.485 22.9959C21.9725 22.9959 20.5134 22.4367 19.3882 21.4258C18.2631 20.415 17.5514 19.0239 17.39 17.52L16.78 11.78C16.6748 10.92 16.7571 10.0475 17.0212 9.22234C17.2853 8.3972 17.725 7.63904 18.31 7ZM41.62 44.4C41.4792 44.5806 41.2985 44.726 41.092 44.825C40.8855 44.9239 40.6589 44.9735 40.43 44.97H6.53C6.30107 44.9735 6.07445 44.9239 5.86796 44.825C5.66147 44.726 5.48075 44.5806 5.34 44.4C5.19475 44.2296 5.08895 44.0291 5.03017 43.813C4.97139 43.5969 4.96109 43.3705 5 43.15L6.28 37.08C6.48271 36.1452 6.87248 35.261 7.42586 34.4808C7.97924 33.7006 8.68478 33.0404 9.5 32.54L18.63 26.88C20.1406 27.617 21.7992 28.0001 23.48 28.0001C25.1608 28.0001 26.8194 27.617 28.33 26.88L37.46 32.54C38.2696 33.0434 38.9695 33.7049 39.5176 34.485C40.0657 35.265 40.4508 36.1477 40.65 37.08L41.93 43.15C41.9776 43.3729 41.9745 43.6037 41.9208 43.8253C41.8672 44.0469 41.7644 44.2536 41.62 44.43V44.4Z" fill="#1E041C"/>
<path d="M32.98 36H27.98C26.5993 36 25.48 37.1193 25.48 38.5C25.48 39.8807 26.5993 41 27.98 41H32.98C34.3607 41 35.48 39.8807 35.48 38.5C35.48 37.1193 34.3607 36 32.98 36Z" fill="#841474"/>
</g>
<defs>
<clipPath id="clip0_1_171">
<rect width="46.97" height="50" fill="white"/>
</clipPath>
</defs>
</svg>
