<svg width="44" height="50" viewBox="0 0 44 50" fill="none" xmlns="http://www.w3.org/2000/svg">
<g clip-path="url(#clip0_1_176)">
<path d="M25 41V42C25 42.7956 24.6839 43.5587 24.1213 44.1213C23.5587 44.6839 22.7956 45 22 45C21.2044 45 20.4413 44.6839 19.8787 44.1213C19.3161 43.5587 19 42.7956 19 42V41H14V42C14 44.1217 14.8429 46.1566 16.3431 47.6569C17.8434 49.1571 19.8783 50 22 50C24.1217 50 26.1566 49.1571 27.6569 47.6569C29.1571 46.1566 30 44.1217 30 42V41H25Z" fill="#841474"/>
<path d="M41.36 35.9999C40.7341 35.9999 40.1338 35.7512 39.6912 35.3087C39.2486 34.8661 39 34.2658 39 33.6399V21.9999C38.9964 17.927 37.5306 13.9908 34.8694 10.9075C32.2083 7.82424 28.5286 5.79884 24.5 5.19989V2.63989C24.5159 2.00157 24.2964 1.3797 23.8833 0.892817C23.4702 0.405939 22.8924 0.0881005 22.26 -0.000111034C21.9105 -0.0366598 21.5573 0.000872351 21.2233 0.110038C20.8893 0.219203 20.582 0.397549 20.3216 0.633443C20.0612 0.869338 19.8534 1.15748 19.7118 1.47908C19.5703 1.80068 19.4981 2.14851 19.5 2.49989V5.19989C15.4714 5.79884 11.7917 7.82424 9.13055 10.9075C6.46939 13.9908 5.00363 17.927 5 21.9999V33.6399C5 34.2658 4.75135 34.8661 4.30877 35.3087C3.86618 35.7512 3.26591 35.9999 2.64 35.9999C2.00167 35.9839 1.3798 36.2034 0.892924 36.6166C0.406045 37.0297 0.0882073 37.6075 -4.22262e-06 38.2399C-0.036553 38.5894 0.000979163 38.9426 0.110144 39.2766C0.21931 39.6106 0.397656 39.9178 0.63355 40.1783C0.869445 40.4387 1.15759 40.6465 1.47919 40.788C1.80079 40.9296 2.14862 41.0018 2.5 40.9999H41.5C41.8514 41.0018 42.1992 40.9296 42.5208 40.788C42.8424 40.6465 43.1305 40.4387 43.3664 40.1783C43.6023 39.9178 43.7807 39.6106 43.8898 39.2766C43.999 38.9426 44.0365 38.5894 44 38.2399C43.9118 37.6075 43.5939 37.0297 43.1071 36.6166C42.6202 36.2034 41.9983 35.9839 41.36 35.9999ZM10 35.9999V22.3499C9.96754 19.3226 11.0573 16.3904 13.059 14.1191C15.0607 11.8478 17.8326 10.3982 20.84 10.0499C22.5064 9.88805 24.1881 10.0767 25.7772 10.6037C27.3663 11.1307 28.8276 11.9843 30.067 13.1098C31.3065 14.2353 32.2967 15.6077 32.974 17.1388C33.6514 18.6698 34.0009 20.3257 34 21.9999V35.9999H10Z" fill="#1E041C"/>
</g>
<defs>
<clipPath id="clip0_1_176">
<rect width="44" height="50" fill="white"/>
</clipPath>
</defs>
</svg>
