<svg width="50" height="50" viewBox="0 0 50 50" fill="none" xmlns="http://www.w3.org/2000/svg">
<path d="M41.92 5H40V2.5C40 1.83696 39.7366 1.20107 39.2678 0.732233C38.7989 0.263392 38.163 0 37.5 0C36.837 0 36.2011 0.263392 35.7322 0.732233C35.2634 1.20107 35 1.83696 35 2.5V5H15V2.5C15 1.83696 14.7366 1.20107 14.2678 0.732233C13.7989 0.263392 13.163 0 12.5 0C11.837 0 11.2011 0.263392 10.7322 0.732233C10.2634 1.20107 10 1.83696 10 2.5V5H8.08C5.93705 5 3.88187 5.85128 2.36658 7.36658C0.851283 8.88187 0 10.9371 0 13.08L0 41.92C0 44.0629 0.851283 46.1181 2.36658 47.6334C3.88187 49.1487 5.93705 50 8.08 50H41.92C44.0629 50 46.1181 49.1487 47.6334 47.6334C49.1487 46.1181 50 44.0629 50 41.92V13.08C50 10.9371 49.1487 8.88187 47.6334 7.36658C46.1181 5.85128 44.0629 5 41.92 5V5ZM45 41.92C45 42.7369 44.6755 43.5203 44.0979 44.0979C43.5203 44.6755 42.7369 45 41.92 45H8.08C7.26313 45 6.47972 44.6755 5.90211 44.0979C5.3245 43.5203 5 42.7369 5 41.92V13.08C5 12.2631 5.3245 11.4797 5.90211 10.9021C6.47972 10.3245 7.26313 10 8.08 10H10V12.5C10 13.163 10.2634 13.7989 10.7322 14.2678C11.2011 14.7366 11.837 15 12.5 15C13.163 15 13.7989 14.7366 14.2678 14.2678C14.7366 13.7989 15 13.163 15 12.5V10H35V12.5C35 13.163 35.2634 13.7989 35.7322 14.2678C36.2011 14.7366 36.837 15 37.5 15C38.163 15 38.7989 14.7366 39.2678 14.2678C39.7366 13.7989 40 13.163 40 12.5V10H41.92C42.7369 10 43.5203 10.3245 44.0979 10.9021C44.6755 11.4797 45 12.2631 45 13.08V41.92Z" fill="#1E041C"/>
<path d="M25 28C26.3807 28 27.5 26.8807 27.5 25.5C27.5 24.1193 26.3807 23 25 23C23.6193 23 22.5 24.1193 22.5 25.5C22.5 26.8807 23.6193 28 25 28Z" fill="#1E041C"/>
<path d="M25 37C26.3807 37 27.5 35.8807 27.5 34.5C27.5 33.1193 26.3807 32 25 32C23.6193 32 22.5 33.1193 22.5 34.5C22.5 35.8807 23.6193 37 25 37Z" fill="#1E041C"/>
<path d="M16 37C17.3807 37 18.5 35.8807 18.5 34.5C18.5 33.1193 17.3807 32 16 32C14.6193 32 13.5 33.1193 13.5 34.5C13.5 35.8807 14.6193 37 16 37Z" fill="#1E041C"/>
<path d="M34 28C35.3807 28 36.5 26.8807 36.5 25.5C36.5 24.1193 35.3807 23 34 23C32.6193 23 31.5 24.1193 31.5 25.5C31.5 26.8807 32.6193 28 34 28Z" fill="#841474"/>
<path d="M34 37C35.3807 37 36.5 35.8807 36.5 34.5C36.5 33.1193 35.3807 32 34 32C32.6193 32 31.5 33.1193 31.5 34.5C31.5 35.8807 32.6193 37 34 37Z" fill="#841474"/>
</svg>
