<svg width="50" height="50" viewBox="0 0 50 50" fill="none" xmlns="http://www.w3.org/2000/svg">
<g clip-path="url(#clip0_1_186)">
<path d="M26.82 27.6199L35.82 22.7299C36.0983 22.5564 36.3397 22.3297 36.5301 22.0627C36.7206 21.7957 36.8564 21.4937 36.9298 21.174C37.0032 20.8544 37.0127 20.5234 36.9579 20.2001C36.903 19.8767 36.7848 19.5674 36.61 19.2899C36.2594 18.7282 35.7004 18.3285 35.0554 18.1785C34.4105 18.0285 33.7324 18.1405 33.17 18.4899L24.17 23.3799C23.8909 23.5526 23.6486 23.7787 23.4572 24.0453C23.2657 24.312 23.1289 24.6138 23.0546 24.9335C22.9802 25.2532 22.9698 25.5845 23.024 25.9082C23.0781 26.2319 23.1957 26.5418 23.37 26.8199C23.5427 27.1004 23.7693 27.3439 24.0367 27.5362C24.3042 27.7285 24.6071 27.8658 24.928 27.9402C25.2489 28.0146 25.5813 28.0246 25.9061 27.9696C26.2309 27.9147 26.5415 27.7958 26.82 27.6199Z" fill="#841474"/>
<path d="M25 0C20.0555 0 15.222 1.46622 11.1107 4.21326C6.99951 6.96029 3.7952 10.8648 1.90301 15.4329C0.0108168 20.0011 -0.484267 25.0277 0.480364 29.8773C1.44499 34.7268 3.82601 39.1814 7.32233 42.6777C10.8186 46.174 15.2732 48.555 20.1227 49.5196C24.9723 50.4843 29.9989 49.9892 34.5671 48.097C39.1352 46.2048 43.0397 43.0005 45.7867 38.8893C48.5338 34.778 50 29.9445 50 25C50 18.3696 47.3661 12.0107 42.6777 7.32233C37.9893 2.63392 31.6304 0 25 0V0ZM25 45C21.0444 45 17.1776 43.827 13.8886 41.6294C10.5996 39.4318 8.03616 36.3082 6.52241 32.6537C5.00865 28.9991 4.61259 24.9778 5.38429 21.0982C6.156 17.2186 8.06081 13.6549 10.8579 10.8579C13.6549 8.06081 17.2186 6.156 21.0982 5.38429C24.9778 4.61259 28.9991 5.00866 32.6537 6.52241C36.3082 8.03616 39.4318 10.5996 41.6294 13.8886C43.827 17.1776 45 21.0444 45 25C45 30.3043 42.8929 35.3914 39.1421 39.1421C35.3914 42.8929 30.3043 45 25 45Z" fill="#1E041C"/>
<path d="M16.82 13.6999C16.3277 13.2798 15.6915 13.0669 15.0455 13.1062C14.3994 13.1454 13.7937 13.4337 13.3559 13.9104C12.918 14.3871 12.6821 15.0151 12.6978 15.6622C12.7135 16.3092 12.9796 16.925 13.44 17.3799L23.81 27.3799C24.049 27.6161 24.3331 27.8016 24.6454 27.9255C24.9578 28.0493 25.2918 28.109 25.6277 28.1008C25.9636 28.0927 26.2944 28.0169 26.6003 27.8781C26.9062 27.7392 27.1811 27.5401 27.4083 27.2927C27.6356 27.0452 27.8107 26.7545 27.9231 26.4379C28.0354 26.1213 28.0829 25.7853 28.0625 25.4499C28.0421 25.1146 27.9544 24.7868 27.8044 24.4861C27.6545 24.1854 27.4456 23.918 27.19 23.6999L16.82 13.6999Z" fill="#1E041C"/>
</g>
<defs>
<clipPath id="clip0_1_186">
<rect width="50" height="50" fill="white"/>
</clipPath>
</defs>
</svg>
