<svg width="50" height="49" viewBox="0 0 50 49" fill="none" xmlns="http://www.w3.org/2000/svg">
<g clip-path="url(#clip0_1_181)">
<path d="M34.71 39.0001H12.34C9.61495 38.9986 6.96703 38.0951 4.8094 36.4306C2.65177 34.7661 1.10579 32.4342 0.412673 29.7988C-0.280443 27.1633 -0.0817067 24.3726 0.977873 21.8619C2.03745 19.3513 3.89828 17.262 6.27 15.9201V15.4701C6.27594 11.9472 7.48408 8.53189 9.69464 5.78889C11.9052 3.04589 14.9858 1.13953 18.4269 0.38507C21.8681 -0.369392 25.4636 0.0732369 28.619 1.63976C31.7745 3.20628 34.3007 5.80286 35.78 9.00009C39.7583 9.14198 43.5172 10.8584 46.2299 13.7718C48.9426 16.6852 50.3869 20.5568 50.245 24.5351C50.1031 28.5133 48.3867 32.2723 45.4733 34.985C42.5599 37.6977 38.6883 39.142 34.71 39.0001ZM21.71 5.00009C18.9383 5.01065 16.2834 6.11777 14.3253 8.07956C12.3673 10.0413 11.2653 12.6984 11.26 15.4701C11.2675 16.0028 11.3143 16.5343 11.4 17.0601L11.71 19.0601L9.8 19.7701C8.1811 20.3647 6.82326 21.5103 5.96469 23.006C5.10612 24.5018 4.80166 26.2521 5.10471 27.9499C5.40776 29.6477 6.29897 31.1845 7.622 32.2909C8.94503 33.3972 10.6154 34.0023 12.34 34.0001H34.71C37.3622 34.0001 39.9057 32.9465 41.7811 31.0712C43.6564 29.1958 44.71 26.6523 44.71 24.0001C44.71 21.3479 43.6564 18.8044 41.7811 16.929C39.9057 15.0537 37.3622 14.0001 34.71 14.0001H34.46L32.29 14.1101L31.7 12.2901C31.0303 10.174 29.7037 8.32647 27.9127 7.01558C26.1217 5.70469 23.9595 4.9987 21.74 5.00009H21.71Z" fill="#1E041C"/>
<path d="M34.37 43.5H15.37C13.9893 43.5 12.87 44.6193 12.87 46C12.87 47.3807 13.9893 48.5 15.37 48.5H34.37C35.7507 48.5 36.87 47.3807 36.87 46C36.87 44.6193 35.7507 43.5 34.37 43.5Z" fill="#841474"/>
</g>
<defs>
<clipPath id="clip0_1_181">
<rect width="49.74" height="48.5" fill="white"/>
</clipPath>
</defs>
</svg>
