<svg width="50" height="50" viewBox="0 0 50 50" fill="none" xmlns="http://www.w3.org/2000/svg">
<g clip-path="url(#clip0_1_197)">
<path d="M41.83 0H8.17C6.00318 0 3.92511 0.860765 2.39294 2.39294C0.860765 3.92511 0 6.00318 0 8.17L0 29.83C0 30.9029 0.211323 31.9653 0.621904 32.9565C1.03249 33.9478 1.63428 34.8484 2.39294 35.6071C3.92511 37.1392 6.00318 38 8.17 38H10.72L7.34 46C7.17439 46.3163 7.07843 46.6644 7.0586 47.0208C7.03877 47.3773 7.09551 47.7339 7.22501 48.0666C7.35452 48.3993 7.55377 48.7004 7.80938 48.9496C8.06499 49.1989 8.37101 49.3905 8.70687 49.5115C9.04272 49.6326 9.40062 49.6804 9.75647 49.6516C10.1123 49.6227 10.4579 49.5181 10.7699 49.3445C11.0819 49.171 11.3531 48.9327 11.5653 48.6455C11.7775 48.3584 11.9257 48.0292 12 47.68L16.76 36.51C16.7587 36.4867 16.7587 36.4633 16.76 36.44V36.37L16.81 36.2C16.81 36.12 16.86 36.03 16.88 35.94C16.885 35.8501 16.885 35.7599 16.88 35.67C16.8848 35.6134 16.8848 35.5566 16.88 35.5C16.8853 35.4067 16.8853 35.3133 16.88 35.22V35C16.8578 34.9218 16.8311 34.845 16.8 34.77C16.7839 34.6901 16.757 34.6127 16.72 34.54C16.6894 34.4702 16.6525 34.4033 16.61 34.34C16.576 34.2635 16.5359 34.19 16.49 34.12L16.33 33.93C16.2854 33.8688 16.2352 33.8119 16.18 33.76C16.1211 33.7046 16.0576 33.6544 15.99 33.61C15.9337 33.5517 15.8698 33.5012 15.8 33.46L15.61 33.35C15.5262 33.304 15.4393 33.2639 15.35 33.23H15.18L14.94 33H8.17C7.75371 33 7.3415 32.918 6.95689 32.7587C6.57229 32.5994 6.22283 32.3659 5.92847 32.0715C5.63411 31.7772 5.40061 31.4277 5.2413 31.0431C5.08199 30.6585 5 30.2463 5 29.83V8.17C5 7.32926 5.33398 6.52296 5.92847 5.92847C6.52296 5.33398 7.32926 5 8.17 5H41.83C42.6707 5 43.477 5.33398 44.0715 5.92847C44.666 6.52296 45 7.32926 45 8.17V29.83C45 30.6707 44.666 31.477 44.0715 32.0715C43.477 32.666 42.6707 33 41.83 33H24.5C23.837 33 23.2011 33.2634 22.7322 33.7322C22.2634 34.2011 22 34.837 22 35.5C22 36.163 22.2634 36.7989 22.7322 37.2678C23.2011 37.7366 23.837 38 24.5 38H41.83C42.9029 38 43.9653 37.7887 44.9565 37.3781C45.9478 36.9675 46.8484 36.3657 47.6071 35.6071C48.3657 34.8484 48.9675 33.9478 49.3781 32.9565C49.7887 31.9653 50 30.9029 50 29.83V8.17C50 6.00318 49.1392 3.92511 47.6071 2.39294C46.0749 0.860765 43.9968 0 41.83 0Z" fill="#1E041C"/>
<path d="M33 14.5C33 13.837 32.7366 13.2011 32.2678 12.7322C31.7989 12.2634 31.163 12 30.5 12H12.5C11.837 12 11.2011 12.2634 10.7322 12.7322C10.2634 13.2011 10 13.837 10 14.5C10 15.163 10.2634 15.7989 10.7322 16.2678C11.2011 16.7366 11.837 17 12.5 17H30.5C31.163 17 31.7989 16.7366 32.2678 16.2678C32.7366 15.7989 33 15.163 33 14.5Z" fill="#1E041C"/>
<path d="M25.5 21H12.5C11.1193 21 10 22.1193 10 23.5C10 24.8807 11.1193 26 12.5 26H25.5C26.8807 26 28 24.8807 28 23.5C28 22.1193 26.8807 21 25.5 21Z" fill="#841474"/>
</g>
<defs>
<clipPath id="clip0_1_197">
<rect width="50" height="49.32" fill="white"/>
</clipPath>
</defs>
</svg>
