<svg width="304" height="89" viewBox="0 0 304 89" fill="none" xmlns="http://www.w3.org/2000/svg">
<g clip-path="url(#clip0_1_44)">
<path d="M0 43.4807C0 3.57667 14.4961 0 43.4845 0C72.4729 0 86.9652 4.34613 86.9652 43.4807C86.9652 83.23 72.4729 86.9613 43.4845 86.9613C14.4961 86.9613 0 81.5403 0 43.4807Z" fill="#841474"/>
<path d="M69.887 42.1803C69.8909 37.0927 68.4249 32.1123 65.6655 27.838C62.906 23.5638 58.9705 20.1777 54.3323 18.0871C49.6942 15.9964 44.5507 15.2902 39.5207 16.0533C34.4907 16.8165 29.7882 19.0165 25.9788 22.3888C22.1694 25.7611 19.4154 30.162 18.0478 35.0624C16.6803 39.9627 16.7576 45.1538 18.2703 50.0113C19.783 54.8688 22.6668 59.1859 26.5748 62.4434C30.4829 65.7008 35.2487 67.7599 40.2992 68.3731V78.6004L59.7872 62.9211C60.0424 62.7239 60.2976 62.5344 60.5606 62.314L61.2566 61.7572H61.1754C63.9205 59.2885 66.1149 56.2694 67.6159 52.8964C69.1169 49.5234 69.8907 45.8721 69.887 42.1803ZM43.6903 57.0747C41.7421 57.0785 39.8124 56.6971 38.0121 55.9526C36.2118 55.2081 34.5765 54.115 33.2 52.7363L35.8216 50.1147C37.9094 52.1984 40.7386 53.3687 43.6884 53.3687C46.6381 53.3687 49.4673 52.1984 51.5551 50.1147L54.1767 52.7363C52.8009 54.1147 51.1662 55.2076 49.3665 55.9521C47.5669 56.6967 45.6379 57.0782 43.6903 57.0747V57.0747Z" fill="white"/>
<path d="M100.5 62.0797C99.445 62.0797 98.5729 61.7349 97.8833 61.0453C97.1937 60.3152 96.8489 59.4228 96.8489 58.3681V33.2384C96.8489 32.1837 97.1937 31.3116 97.8833 30.622C98.5729 29.8919 99.445 29.5268 100.5 29.5268C101.554 29.5268 102.427 29.8919 103.116 30.622C103.806 31.3116 104.15 32.1837 104.15 33.2384V38.958L103.725 34.8813C104.171 33.9077 104.739 33.0559 105.428 32.3257C106.158 31.555 106.97 30.9263 107.862 30.4395C108.755 29.9121 109.708 29.5268 110.722 29.2834C111.736 29.04 112.75 28.9183 113.764 28.9183C114.981 28.9183 115.995 29.2631 116.807 29.9527C117.658 30.6423 118.084 31.4536 118.084 32.3866C118.084 33.7252 117.74 34.6987 117.05 35.3072C116.36 35.8751 115.61 36.1591 114.799 36.1591C114.028 36.1591 113.318 36.0171 112.669 35.7331C112.061 35.4492 111.351 35.3072 110.539 35.3072C109.809 35.3072 109.059 35.4897 108.288 35.8548C107.558 36.1793 106.868 36.7067 106.219 37.4368C105.611 38.167 105.104 39.0797 104.698 40.1749C104.333 41.2296 104.15 42.4871 104.15 43.9474V58.3681C104.15 59.4228 103.806 60.3152 103.116 61.0453C102.427 61.7349 101.554 62.0797 100.5 62.0797Z" fill="#1E041C"/>
<path d="M146.736 28.9183C147.79 28.9183 148.662 29.2631 149.352 29.9527C150.042 30.6423 150.386 31.5347 150.386 32.63V58.3681C150.386 59.4228 150.042 60.3152 149.352 61.0453C148.662 61.7349 147.79 62.0797 146.736 62.0797C145.681 62.0797 144.809 61.7349 144.119 61.0453C143.43 60.3152 143.085 59.4228 143.085 58.3681V55.3866L144.423 55.9342C144.423 56.4616 144.139 57.1106 143.571 57.8813C143.004 58.6115 142.233 59.3416 141.259 60.0718C140.286 60.8019 139.13 61.4307 137.791 61.958C136.493 62.4448 135.073 62.6882 133.532 62.6882C130.733 62.6882 128.198 61.9783 125.926 60.5586C123.654 59.0982 121.849 57.1106 120.511 54.5956C119.213 52.04 118.564 49.1194 118.564 45.8337C118.564 42.5074 119.213 39.5868 120.511 37.0718C121.849 34.5162 123.634 32.5285 125.865 31.1088C128.096 29.6485 130.571 28.9183 133.288 28.9183C135.033 28.9183 136.635 29.182 138.095 29.7093C139.556 30.2367 140.813 30.906 141.868 31.7173C142.963 32.5285 143.795 33.3601 144.363 34.212C144.971 35.0233 145.275 35.7129 145.275 36.2808L143.085 37.0718V32.63C143.085 31.5753 143.43 30.7031 144.119 30.0136C144.809 29.2834 145.681 28.9183 146.736 28.9183ZM134.445 55.9951C136.229 55.9951 137.791 55.5489 139.13 54.6564C140.468 53.764 141.503 52.5471 142.233 51.0056C143.004 49.4642 143.389 47.7402 143.389 45.8337C143.389 43.8866 143.004 42.1423 142.233 40.6009C141.503 39.0594 140.468 37.8425 139.13 36.9501C137.791 36.0576 136.229 35.6114 134.445 35.6114C132.7 35.6114 131.159 36.0576 129.82 36.9501C128.482 37.8425 127.427 39.0594 126.656 40.6009C125.926 42.1423 125.561 43.8866 125.561 45.8337C125.561 47.7402 125.926 49.4642 126.656 51.0056C127.427 52.5471 128.482 53.764 129.82 54.6564C131.159 55.5489 132.7 55.9951 134.445 55.9951Z" fill="#1E041C"/>
<path d="M179.613 29.5268C180.667 29.5268 181.539 29.8919 182.229 30.622C182.919 31.3116 183.263 32.1837 183.263 33.2384V59.0982C183.263 62.8302 182.554 65.7914 181.134 67.9818C179.755 70.2129 177.889 71.8152 175.536 72.7887C173.183 73.7623 170.547 74.2491 167.626 74.2491C166.328 74.2491 164.949 74.1476 163.488 73.9448C162.028 73.742 160.831 73.4378 159.898 73.0321C158.681 72.5048 157.83 71.8355 157.343 71.0242C156.897 70.2535 156.815 69.4219 157.099 68.5295C157.464 67.3531 158.053 66.5418 158.864 66.0956C159.675 65.69 160.527 65.6494 161.42 65.9739C162.069 66.1767 162.92 66.481 163.975 66.8866C165.03 67.3328 166.247 67.5559 167.626 67.5559C169.492 67.5559 171.033 67.2923 172.25 66.7649C173.508 66.2781 174.441 65.4263 175.049 64.2094C175.698 63.033 176.023 61.4104 176.023 59.3416V55.2649L177.3 56.7252C176.611 58.0638 175.739 59.1794 174.684 60.0718C173.67 60.9236 172.453 61.5727 171.033 62.0189C169.614 62.4651 167.991 62.6882 166.166 62.6882C164.016 62.6882 162.129 62.2014 160.507 61.2279C158.925 60.2138 157.688 58.8346 156.795 57.0903C155.903 55.3055 155.457 53.2772 155.457 51.0056V33.2384C155.457 32.1837 155.801 31.3116 156.491 30.622C157.181 29.8919 158.053 29.5268 159.107 29.5268C160.162 29.5268 161.034 29.8919 161.724 30.622C162.413 31.3116 162.758 32.1837 162.758 33.2384V48.8152C162.758 51.4518 163.326 53.3178 164.462 54.413C165.638 55.4677 167.261 55.9951 169.33 55.9951C170.749 55.9951 171.946 55.7314 172.92 55.2041C173.893 54.6362 174.644 53.8249 175.171 52.7702C175.698 51.675 175.962 50.3566 175.962 48.8152V33.2384C175.962 32.1837 176.307 31.3116 176.996 30.622C177.686 29.8919 178.558 29.5268 179.613 29.5268Z" fill="#1E041C"/>
<path d="M203.216 28.9183C205.528 28.9183 207.536 29.1617 209.24 29.6485C210.984 30.1352 212.323 30.8248 213.256 31.7173C214.229 32.5691 214.716 33.6035 214.716 34.8204C214.716 35.6317 214.473 36.4024 213.986 37.1326C213.499 37.8222 212.789 38.167 211.856 38.167C211.207 38.167 210.659 38.0859 210.213 37.9236C209.808 37.7208 209.443 37.4774 209.118 37.1935C208.794 36.9095 208.408 36.6458 207.962 36.4024C207.556 36.1591 206.928 35.9765 206.076 35.8548C205.264 35.6926 204.656 35.6114 204.25 35.6114C202.182 35.6114 200.417 36.0576 198.957 36.9501C197.537 37.8425 196.442 39.0594 195.671 40.6009C194.9 42.1017 194.515 43.846 194.515 45.8337C194.515 47.7808 194.9 49.525 195.671 51.0665C196.482 52.5674 197.577 53.764 198.957 54.6564C200.376 55.5489 201.999 55.9951 203.824 55.9951C204.838 55.9951 205.711 55.9342 206.441 55.8125C207.171 55.6908 207.779 55.5083 208.266 55.2649C208.834 54.9404 209.341 54.5956 209.787 54.2305C210.234 53.8654 210.903 53.6829 211.795 53.6829C212.85 53.6829 213.661 54.0277 214.229 54.7173C214.797 55.3663 215.081 56.1776 215.081 57.1511C215.081 58.1653 214.513 59.0982 213.377 59.9501C212.242 60.7614 210.741 61.4307 208.875 61.958C207.049 62.4448 205.062 62.6882 202.912 62.6882C199.707 62.6882 196.928 61.958 194.576 60.4977C192.223 58.9968 190.398 56.9686 189.1 54.413C187.842 51.8575 187.213 48.9977 187.213 45.8337C187.213 42.5074 187.883 39.5868 189.221 37.0718C190.6 34.5162 192.487 32.5285 194.88 31.1088C197.314 29.6485 200.092 28.9183 203.216 28.9183Z" fill="#1E041C"/>
<path d="M235.322 28.9183C238.242 28.9183 240.453 29.5471 241.954 30.8046C243.495 32.0621 244.55 33.7455 245.118 35.8548C245.686 37.9236 245.97 40.2358 245.97 42.7913V58.3681C245.97 59.4228 245.625 60.3152 244.935 61.0453C244.246 61.7349 243.374 62.0797 242.319 62.0797C241.264 62.0797 240.392 61.7349 239.703 61.0453C239.013 60.3152 238.668 59.4228 238.668 58.3681V42.7913C238.668 41.4527 238.506 40.2561 238.181 39.2014C237.857 38.1062 237.269 37.234 236.417 36.585C235.565 35.936 234.348 35.6114 232.766 35.6114C231.225 35.6114 229.906 35.936 228.811 36.585C227.716 37.234 226.884 38.1062 226.316 39.2014C225.789 40.2561 225.525 41.4527 225.525 42.7913V58.3681C225.525 59.4228 225.18 60.3152 224.491 61.0453C223.801 61.7349 222.929 62.0797 221.874 62.0797C220.82 62.0797 219.948 61.7349 219.258 61.0453C218.568 60.3152 218.224 59.4228 218.224 58.3681V20.7649C218.224 19.7102 218.568 18.8381 219.258 18.1485C219.948 17.4183 220.82 17.0532 221.874 17.0532C222.929 17.0532 223.801 17.4183 224.491 18.1485C225.18 18.8381 225.525 19.7102 225.525 20.7649V35.8548L224.613 35.6723C224.978 34.9827 225.485 34.2525 226.134 33.4818C226.783 32.6705 227.574 31.9201 228.507 31.2305C229.44 30.5409 230.474 29.9933 231.61 29.5876C232.746 29.1414 233.983 28.9183 235.322 28.9183Z" fill="#1E041C"/>
<path d="M278.093 28.9183C279.148 28.9183 280.02 29.2631 280.709 29.9527C281.399 30.6423 281.744 31.5347 281.744 32.63V58.3681C281.744 59.4228 281.399 60.3152 280.709 61.0453C280.02 61.7349 279.148 62.0797 278.093 62.0797C277.038 62.0797 276.166 61.7349 275.477 61.0453C274.787 60.3152 274.442 59.4228 274.442 58.3681V55.3866L275.781 55.9342C275.781 56.4616 275.497 57.1106 274.929 57.8813C274.361 58.6115 273.59 59.3416 272.617 60.0718C271.643 60.8019 270.487 61.4307 269.148 61.958C267.85 62.4448 266.431 62.6882 264.889 62.6882C262.09 62.6882 259.555 61.9783 257.283 60.5586C255.012 59.0982 253.207 57.1106 251.868 54.5956C250.57 52.04 249.921 49.1194 249.921 45.8337C249.921 42.5074 250.57 39.5868 251.868 37.0718C253.207 34.5162 254.991 32.5285 257.223 31.1088C259.454 29.6485 261.928 28.9183 264.646 28.9183C266.39 28.9183 267.992 29.182 269.453 29.7093C270.913 30.2367 272.171 30.906 273.225 31.7173C274.32 32.5285 275.152 33.3601 275.72 34.212C276.328 35.0233 276.633 35.7129 276.633 36.2808L274.442 37.0718V32.63C274.442 31.5753 274.787 30.7031 275.477 30.0136C276.166 29.2834 277.038 28.9183 278.093 28.9183ZM265.802 55.9951C267.587 55.9951 269.148 55.5489 270.487 54.6564C271.826 53.764 272.86 52.5471 273.59 51.0056C274.361 49.4642 274.746 47.7402 274.746 45.8337C274.746 43.8866 274.361 42.1423 273.59 40.6009C272.86 39.0594 271.826 37.8425 270.487 36.9501C269.148 36.0576 267.587 35.6114 265.802 35.6114C264.058 35.6114 262.516 36.0576 261.178 36.9501C259.839 37.8425 258.784 39.0594 258.014 40.6009C257.283 42.1423 256.918 43.8866 256.918 45.8337C256.918 47.7402 257.283 49.4642 258.014 51.0056C258.784 52.5471 259.839 53.764 261.178 54.6564C262.516 55.5489 264.058 55.9951 265.802 55.9951Z" fill="#1E041C"/>
<path d="M287.892 30.1352H302.313C303.286 30.1352 304.098 30.4598 304.747 31.1088C305.396 31.7578 305.72 32.5691 305.72 33.5427C305.72 34.4756 305.396 35.2666 304.747 35.9157C304.098 36.5241 303.286 36.8284 302.313 36.8284H287.892C286.919 36.8284 286.107 36.5039 285.458 35.8548C284.809 35.2058 284.485 34.3945 284.485 33.421C284.485 32.488 284.809 31.7173 285.458 31.1088C286.107 30.4598 286.919 30.1352 287.892 30.1352ZM294.403 22.5294C295.457 22.5294 296.309 22.8945 296.958 23.6247C297.648 24.3143 297.993 25.1864 297.993 26.2411V53.3178C297.993 53.8857 298.094 54.3522 298.297 54.7173C298.54 55.0824 298.844 55.346 299.21 55.5083C299.615 55.6705 300.041 55.7517 300.487 55.7517C300.974 55.7517 301.42 55.6705 301.826 55.5083C302.232 55.3055 302.698 55.2041 303.225 55.2041C303.793 55.2041 304.3 55.4677 304.747 55.9951C305.233 56.5224 305.477 57.2526 305.477 58.1855C305.477 59.3213 304.848 60.2543 303.591 60.9845C302.374 61.7146 301.055 62.0797 299.635 62.0797C298.784 62.0797 297.83 62.0189 296.776 61.8972C295.762 61.7349 294.788 61.3901 293.855 60.8628C292.963 60.2949 292.212 59.443 291.604 58.3072C290.995 57.1714 290.691 55.6097 290.691 53.622V26.2411C290.691 25.1864 291.036 24.3143 291.725 23.6247C292.456 22.8945 293.348 22.5294 294.403 22.5294Z" fill="#1E041C"/>
</g>
<defs>
<clipPath id="clip0_1_44">
<rect width="304" height="89" fill="white"/>
</clipPath>
</defs>
</svg>
