<svg width="169" height="61" viewBox="0 0 169 61" fill="none" xmlns="http://www.w3.org/2000/svg">
<g clip-path="url(#clip0_1_65)">
<path d="M1.84912 23.5335C3.47018 1.93584 11.4614 0.588891 27.1511 1.76652C42.8408 2.94414 50.508 5.88518 48.9182 27.0664C47.3035 48.5803 39.3081 50.0112 23.6184 48.8335C7.92866 47.6559 0.302986 44.1329 1.84912 23.5335Z" fill="#DDDDDD"/>
<path d="M39.7275 25.6688C39.9363 22.9153 39.3452 20.1601 38.0253 17.7347C36.7054 15.3092 34.7129 13.3166 32.2874 11.9967C29.862 10.6767 27.1069 10.0855 24.3534 10.2942C21.5999 10.5029 18.9654 11.5026 16.7666 13.1731C14.5678 14.8435 12.8984 17.1136 11.9592 19.7104C11.0199 22.3071 10.8509 25.1198 11.4723 27.8104C12.0937 30.5009 13.4792 32.9546 15.462 34.8765C17.4449 36.7983 19.9407 38.1064 22.6493 38.6434L22.2339 44.1788L33.4185 36.4842C33.5646 36.3879 33.7105 36.2957 33.8617 36.1871L34.261 35.914L34.2171 35.9107C35.8032 34.6861 37.1135 33.1411 38.0629 31.3765C39.0123 29.6119 39.5795 27.6671 39.7275 25.6688ZM24.9437 32.666C23.8891 32.5889 22.8602 32.3041 21.916 31.828C20.9719 31.3519 20.1311 30.6939 19.4422 29.8917L20.9676 28.5793C22.0129 29.7919 23.4967 30.5403 25.0932 30.6601C26.6897 30.7799 28.2685 30.2615 29.4832 29.2185L30.7956 30.7439C29.995 31.4341 29.0658 31.9592 28.0615 32.289C27.0572 32.6189 25.9977 32.747 24.9437 32.666Z" fill="white"/>
<path d="M55.4882 37.6828C54.9174 37.6399 54.4594 37.4179 54.1141 37.0166C53.7706 36.5934 53.6202 36.0964 53.663 35.5256L54.6839 21.9244C54.7268 21.3536 54.9488 20.8955 55.3501 20.5503C55.753 20.1831 56.2398 20.021 56.8107 20.0638C57.3815 20.1067 57.8387 20.3397 58.1823 20.7629C58.5275 21.1641 58.6787 21.6502 58.6358 22.221L58.4035 25.3167L58.3386 23.0929C58.6196 22.5841 58.9616 22.1461 59.3645 21.7789C59.791 21.3915 60.2556 21.0841 60.7584 20.8569C61.2629 20.6077 61.7945 20.4379 62.3532 20.3474C62.912 20.2568 63.4658 20.2322 64.0147 20.2733C64.6734 20.3228 65.2082 20.5506 65.6193 20.9568C66.0524 21.3646 66.2499 21.821 66.212 22.326C66.1576 23.0505 65.9315 23.5634 65.5335 23.8648C65.1372 24.1441 64.7195 24.2673 64.2804 24.2344C63.8633 24.203 63.4848 24.0974 63.1451 23.9173C62.8273 23.7389 62.4488 23.6332 62.0097 23.6003C61.6145 23.5706 61.2009 23.6389 60.769 23.8052C60.3606 23.9512 59.9659 24.2086 59.585 24.5774C59.226 24.9479 58.9145 25.4213 58.6504 25.9976C58.41 26.5536 58.2601 27.2268 58.2008 28.0172L57.615 35.8222C57.5721 36.393 57.3493 36.862 56.9464 37.2292C56.5451 37.5745 56.0591 37.7256 55.4882 37.6828Z" fill="#515151"/>
<path d="M81.8601 21.6128C82.4309 21.6556 82.889 21.8777 83.2342 22.2789C83.5794 22.6802 83.7298 23.1772 83.6853 23.77L82.6397 37.7005C82.5968 38.2713 82.374 38.7403 81.9711 39.1075C81.5698 39.4527 81.0838 39.6039 80.5129 39.5611C79.9421 39.5182 79.4841 39.2962 79.1389 38.8949C78.7953 38.4717 78.6449 37.9747 78.6878 37.4039L78.8089 35.7902L79.5112 36.1409C79.4897 36.4264 79.3097 36.7661 78.971 37.1602C78.634 37.5323 78.1872 37.8962 77.6306 38.2518C77.074 38.6075 76.4227 38.9008 75.6768 39.1319C74.9544 39.3426 74.1761 39.4166 73.3418 39.354C71.8269 39.2403 70.4836 38.7531 69.3118 37.8924C68.1416 37.0097 67.2453 35.8606 66.623 34.445C66.0242 33.0091 65.7916 31.402 65.9251 29.6236C66.0602 27.8233 66.5301 26.2689 67.3349 24.9604C68.1632 23.6316 69.21 22.6283 70.4752 21.9505C71.7421 21.2508 73.111 20.9561 74.582 21.0665C75.526 21.1374 76.3826 21.3452 77.1515 21.6899C77.9205 22.0346 78.5739 22.448 79.1118 22.9299C79.6716 23.4135 80.0879 23.8974 80.3607 24.3815C80.657 24.8453 80.7937 25.2309 80.7706 25.5383L79.5529 25.8774L79.7333 23.4734C79.7762 22.9025 79.9982 22.4445 80.3995 22.0993C80.8024 21.7321 81.2893 21.5699 81.8601 21.6128ZM74.1077 35.7685C75.0738 35.841 75.9371 35.6629 76.6979 35.2343C77.4587 34.8057 78.068 34.189 78.5258 33.3844C79.0056 32.5814 79.2842 31.664 79.3616 30.6321C79.4407 29.5783 79.303 28.6185 78.9485 27.7529C78.6159 26.889 78.1055 26.1883 77.4172 25.6509C76.729 25.1135 75.9018 24.8086 74.9358 24.7361C73.9917 24.6652 73.1393 24.8441 72.3785 25.2727C71.6178 25.7013 70.9975 26.3172 70.5177 27.1201C70.0599 27.9248 69.7914 28.854 69.7124 29.9079C69.6349 30.9397 69.7625 31.8877 70.095 32.7516C70.4496 33.6172 70.971 34.3187 71.6592 34.8561C72.3475 35.3935 73.1637 35.6976 74.1077 35.7685Z" fill="#515151"/>
<path d="M99.6298 23.2777C100.201 23.3205 100.658 23.5536 101.001 23.9768C101.347 24.378 101.498 24.8641 101.455 25.4349L100.404 39.4313C100.253 41.4512 99.7484 43.025 98.8909 44.1529C98.0538 45.3044 96.9788 46.0959 95.6659 46.5272C94.3529 46.9586 92.9061 47.1149 91.3253 46.9963C90.6227 46.9435 89.8804 46.8326 89.0982 46.6635C88.3161 46.4944 87.6808 46.2811 87.1923 46.0237C86.555 45.6888 86.1212 45.292 85.8907 44.8331C85.6805 44.3978 85.6703 43.9444 85.8603 43.473C86.1057 42.8511 86.457 42.4359 86.9142 42.2273C87.3698 42.0407 87.8325 42.0534 88.3023 42.2653C88.6454 42.4014 89.0941 42.6007 89.6484 42.8631C90.2011 43.1475 90.8507 43.3176 91.5972 43.3737C92.6071 43.4495 93.4521 43.3694 94.1322 43.1334C94.8326 42.921 95.3722 42.4979 95.7509 41.8639C96.15 41.2536 96.3916 40.3886 96.4756 39.2689L96.6412 37.0624L97.2735 37.9047C96.8459 38.6012 96.3285 39.1695 95.7214 39.6097C95.1379 40.0295 94.4529 40.3314 93.6664 40.5152C92.8798 40.6991 91.9925 40.7539 91.0045 40.6797C89.8409 40.5924 88.8398 40.2523 88.0011 39.6595C87.1861 39.0463 86.5725 38.2496 86.1603 37.2693C85.7498 36.267 85.5907 35.1511 85.683 33.9216L86.4048 24.3053C86.4476 23.7344 86.6697 23.2764 87.0709 22.9312C87.4738 22.564 87.9607 22.4018 88.5315 22.4447C89.1023 22.4875 89.5595 22.7206 89.9031 23.1438C90.2483 23.545 90.3995 24.0311 90.3567 24.6019L89.7239 33.0327C89.6168 34.4597 89.8484 35.4927 90.4186 36.1317C91.0125 36.7503 91.8692 37.1016 92.9889 37.1857C93.7574 37.2433 94.4158 37.1493 94.9641 36.9034C95.5141 36.6356 95.9532 36.2269 96.2815 35.6775C96.6114 35.1062 96.8077 34.4033 96.8703 33.569L97.5031 25.1383C97.5459 24.5675 97.768 24.1094 98.1692 23.7642C98.5721 23.397 99.059 23.2349 99.6298 23.2777Z" fill="#515151"/>
<path d="M112.43 23.9072C113.681 24.0012 114.758 24.2145 115.66 24.5471C116.585 24.8815 117.281 25.3091 117.75 25.83C118.242 26.3306 118.464 26.9102 118.414 27.5689C118.381 28.008 118.218 28.4152 117.925 28.7907C117.633 29.1441 117.235 29.3019 116.73 29.264C116.379 29.2376 116.086 29.1715 115.851 29.0655C115.64 28.9393 115.452 28.7927 115.288 28.6258C115.124 28.459 114.926 28.3006 114.694 28.1508C114.485 28.0025 114.152 27.8782 113.696 27.7777C113.263 27.657 112.937 27.5883 112.718 27.5718C111.598 27.4878 110.625 27.6576 109.798 28.0813C108.993 28.5067 108.351 29.1208 107.871 29.9238C107.393 30.7048 107.114 31.6332 107.033 32.709C106.954 33.7629 107.092 34.7226 107.446 35.5882C107.824 36.4335 108.368 37.1257 109.079 37.6647C109.811 38.2054 110.671 38.5128 111.659 38.587C112.208 38.6282 112.682 38.6307 113.082 38.5945C113.483 38.5583 113.819 38.4842 114.093 38.3722C114.413 38.2197 114.702 38.0537 114.958 37.8742C115.214 37.6947 115.584 37.6231 116.067 37.6594C116.638 37.7022 117.063 37.9218 117.342 38.3181C117.623 38.6924 117.744 39.1431 117.705 39.67C117.663 40.2189 117.318 40.7008 116.669 41.1157C116.021 41.5087 115.181 41.8099 114.15 42.0196C113.142 42.2089 112.057 42.2598 110.893 42.1725C109.159 42.0423 107.684 41.5342 106.47 40.6483C105.258 39.7404 104.352 38.5685 103.754 37.1326C103.177 35.6983 102.953 34.1249 103.081 32.4124C103.216 30.6121 103.697 29.0585 104.524 27.7517C105.374 26.4245 106.476 25.4254 107.829 24.7542C109.205 24.0627 110.739 23.7803 112.43 23.9072Z" fill="#515151"/>
<path d="M129.806 25.2115C131.387 25.3301 132.558 25.7603 133.319 26.5018C134.103 27.2451 134.605 28.199 134.827 29.3638C135.05 30.5066 135.11 31.7695 135.006 33.1527L134.373 41.5835C134.33 42.1543 134.108 42.6233 133.705 42.9905C133.303 43.3357 132.817 43.4869 132.247 43.4441C131.676 43.4012 131.218 43.1792 130.872 42.7779C130.529 42.3547 130.379 41.8577 130.421 41.2869L131.054 32.8561C131.109 32.1316 131.069 31.4773 130.937 30.8933C130.805 30.2873 130.522 29.7914 130.088 29.4055C129.653 29.0196 129.008 28.7945 128.151 28.7303C127.317 28.6676 126.59 28.7897 125.971 29.0965C125.352 29.4033 124.867 29.8416 124.515 30.4113C124.186 30.9607 123.995 31.5977 123.941 32.3222L123.308 40.7529C123.265 41.3238 123.042 41.7928 122.639 42.16C122.238 42.5052 121.752 42.6564 121.181 42.6135C120.61 42.5707 120.152 42.3486 119.807 41.9474C119.464 41.5242 119.313 41.0272 119.356 40.4563L120.884 20.1039C120.926 19.5331 121.148 19.0751 121.55 18.7298C121.953 18.3627 122.44 18.2005 123.01 18.2433C123.581 18.2862 124.038 18.5192 124.382 18.9424C124.727 19.3437 124.878 19.8297 124.836 20.4005L124.223 28.5679L123.736 28.432C123.962 28.0736 124.266 27.699 124.648 27.3082C125.032 26.8955 125.491 26.5214 126.024 26.1861C126.557 25.8508 127.139 25.5964 127.77 25.423C128.403 25.2276 129.082 25.1571 129.806 25.2115Z" fill="#515151"/>
<path d="M152.956 26.949C153.527 26.9919 153.985 27.2139 154.33 27.6152C154.675 28.0164 154.826 28.5134 154.781 29.1062L153.736 43.0368C153.693 43.6076 153.47 44.0766 153.067 44.4438C152.666 44.789 152.18 44.9402 151.609 44.8973C151.038 44.8545 150.58 44.6324 150.235 44.2312C149.891 43.808 149.741 43.311 149.784 42.7401L149.905 41.1264L150.607 41.4772C150.586 41.7626 150.406 42.1024 150.067 42.4965C149.73 42.8686 149.283 43.2325 148.727 43.5881C148.17 43.9437 147.519 44.2371 146.773 44.4681C146.05 44.6788 145.272 44.7529 144.438 44.6903C142.923 44.5766 141.58 44.0894 140.408 43.2287C139.238 42.346 138.341 41.1969 137.719 39.7813C137.12 38.3454 136.888 36.7382 137.021 34.9599C137.156 33.1595 137.626 31.6051 138.431 30.2967C139.259 28.9679 140.306 27.9646 141.571 27.2868C142.838 26.587 144.207 26.2924 145.678 26.4028C146.622 26.4736 147.479 26.6814 148.247 27.0262C149.016 27.3709 149.67 27.7842 150.208 28.2662C150.768 28.7498 151.184 29.2336 151.457 29.7178C151.753 30.1816 151.89 30.5672 151.867 30.8746L150.649 31.2137L150.829 28.8096C150.872 28.2388 151.094 27.7808 151.495 27.4355C151.898 27.0684 152.385 26.9062 152.956 26.949ZM145.204 41.1048C146.17 41.1773 147.033 40.9992 147.794 40.5706C148.555 40.1419 149.164 39.5253 149.622 38.7207C150.102 37.9177 150.38 37.0003 150.458 35.9684C150.537 34.9145 150.399 33.9548 150.044 33.0892C149.712 32.2252 149.201 31.5246 148.513 30.9872C147.825 30.4498 146.998 30.1448 146.032 30.0723C145.088 30.0015 144.235 30.1803 143.474 30.609C142.714 31.0376 142.093 31.6534 141.614 32.4564C141.156 33.261 140.887 34.1903 140.808 35.2441C140.731 36.276 140.858 37.2239 141.191 38.0879C141.546 38.9535 142.067 39.655 142.755 40.1924C143.443 40.7298 144.26 41.0339 145.204 41.1048Z" fill="#515151"/>
<path d="M158.21 28.0058L166.015 28.5916C166.542 28.6311 166.968 28.8397 167.293 29.2174C167.618 29.595 167.761 30.0473 167.721 30.5742C167.683 31.0792 167.476 31.4942 167.098 31.8191C166.722 32.122 166.27 32.2537 165.743 32.2142L157.938 31.6284C157.412 31.5888 156.986 31.3802 156.661 31.0026C156.336 30.6249 156.193 30.1726 156.233 29.6457C156.271 29.1407 156.477 28.7368 156.853 28.4338C157.231 28.1089 157.683 27.9662 158.21 28.0058ZM162.043 24.1537C162.614 24.1965 163.06 24.4287 163.382 24.8503C163.727 25.2515 163.878 25.7376 163.835 26.3084L162.735 40.9634C162.712 41.2708 162.748 41.5274 162.843 41.7333C162.96 41.9407 163.114 42.0958 163.305 42.1985C163.518 42.3028 163.745 42.364 163.987 42.3821C164.25 42.4019 164.495 42.3761 164.721 42.3047C164.949 42.2114 165.206 42.1755 165.491 42.1969C165.798 42.22 166.062 42.3833 166.282 42.6869C166.524 42.992 166.626 43.3971 166.588 43.9021C166.542 44.5168 166.164 44.9963 165.454 45.3404C164.765 45.6861 164.037 45.8302 163.269 45.7725C162.808 45.7379 162.294 45.6662 161.728 45.5575C161.186 45.4285 160.673 45.2023 160.189 44.879C159.73 44.5354 159.358 44.0438 159.075 43.4044C158.792 42.7649 158.69 41.9073 158.771 40.8315L159.883 26.0118C159.926 25.441 160.148 24.9829 160.55 24.6377C160.974 24.2722 161.472 24.1108 162.043 24.1537Z" fill="#515151"/>
</g>
<defs>
<clipPath id="clip0_1_65">
<rect width="165" height="48.3059" fill="white" transform="translate(3.61548) rotate(4.29241)"/>
</clipPath>
</defs>
</svg>
