<svg width="166" height="52" viewBox="0 0 166 52" fill="none" xmlns="http://www.w3.org/2000/svg">
<g clip-path="url(#clip0_1_72)">
<path d="M0.405051 26.4283C0.033319 4.77303 7.86681 2.69699 23.5983 2.42694C39.3299 2.1569 47.235 4.38047 47.5996 25.6181C47.9699 47.1894 40.14 49.3494 24.4084 49.6194C8.67691 49.8894 0.759601 47.0826 0.405051 26.4283Z" fill="#DDDDDD"/>
<path d="M38.3193 25.0717C38.274 22.3107 37.4321 19.6216 35.8947 17.3277C34.3574 15.0339 32.1901 13.233 29.6536 12.1416C27.1171 11.0503 24.3192 10.7149 21.5966 11.1759C18.874 11.6369 16.3426 12.8747 14.3067 14.7402C12.2708 16.6058 10.8172 19.0198 10.1207 21.6919C9.42426 24.364 9.51454 27.1804 10.3807 29.8023C11.2469 32.4243 12.8521 34.7403 15.0033 36.4716C17.1544 38.203 19.76 39.276 22.5065 39.5617L22.6018 45.1119L33.0315 36.4215C33.1682 36.3121 33.3049 36.2069 33.4456 36.0848L33.8181 35.7762L33.774 35.7769C35.2407 34.4117 36.4035 32.7528 37.1866 30.9083C37.9698 29.0639 38.3557 27.0752 38.3193 25.0717ZM24.2415 33.3987C23.1843 33.4189 22.1336 33.2299 21.1496 32.8427C20.1657 32.4554 19.268 31.8774 18.5082 31.142L19.9065 29.6949C21.0589 30.8063 22.6052 31.415 24.206 31.3876C25.8067 31.3601 27.3312 30.6986 28.4448 29.5483L29.8919 30.9466C29.1581 31.7075 28.2812 32.3158 27.3115 32.7366C26.3418 33.1575 25.2985 33.3824 24.2415 33.3987Z" fill="white"/>
<path d="M55.1179 35.5854C54.5456 35.5953 54.0691 35.4163 53.6884 35.0485C53.3074 34.6586 53.112 34.1776 53.1021 33.6052L52.868 19.9678C52.8582 19.3954 53.0372 18.9189 53.405 18.5382C53.7724 18.1356 54.2423 17.9293 54.8147 17.9195C55.3871 17.9097 55.8637 18.0997 56.2448 18.4895C56.6254 18.8573 56.8207 19.3274 56.8305 19.8997L56.8838 23.0037L56.6147 20.7953C56.8477 20.2628 57.148 19.7952 57.5154 19.3925C57.9045 18.9675 58.3389 18.6187 58.8187 18.3462C59.2981 18.0517 59.8118 17.8337 60.3599 17.6922C60.9079 17.5507 61.4571 17.4752 62.0075 17.4657C62.6679 17.4544 63.2214 17.6321 63.6681 17.9987C64.1369 18.365 64.3756 18.8013 64.3842 19.3077C64.3967 20.0341 64.2187 20.5656 63.8501 20.9023C63.4812 21.2169 63.0766 21.378 62.6363 21.3855C62.218 21.3927 61.8315 21.3223 61.4766 21.1742C61.1438 21.0258 60.7572 20.9554 60.3169 20.9629C59.9207 20.9697 59.5151 21.0758 59.1003 21.2811C58.707 21.464 58.3377 21.7566 57.9923 22.1589C57.6689 22.5608 57.4022 23.0608 57.1923 23.659C57.004 24.2347 56.9167 24.9189 56.9303 25.7113L57.0646 33.5372C57.0744 34.1095 56.8956 34.5971 56.5282 34.9997C56.1604 35.3804 55.6903 35.5756 55.1179 35.5854Z" fill="#515151"/>
<path d="M79.9004 17.1586C80.4728 17.1488 80.9493 17.3278 81.3299 17.6956C81.7106 18.0634 81.906 18.5445 81.9162 19.1388L82.156 33.1065C82.1658 33.6788 81.987 34.1663 81.6196 34.569C81.2518 34.9497 80.7817 35.1449 80.2094 35.1547C79.637 35.1646 79.1605 34.9856 78.7798 34.6178C78.3988 34.2279 78.2034 33.7468 78.1936 33.1745L78.1658 31.5565L78.8973 31.8412C78.9022 32.1274 78.7542 32.4822 78.4532 32.9058C78.1518 33.3073 77.7403 33.7108 77.2188 34.1161C76.6973 34.5214 76.0758 34.8734 75.3542 35.172C74.6543 35.4483 73.8861 35.5936 73.0496 35.6079C71.5306 35.634 70.1482 35.2724 68.9022 34.5231C67.6558 33.7517 66.6577 32.6899 65.9078 31.3375C65.1796 29.9627 64.8002 28.3838 64.7695 26.6007C64.7386 24.7956 65.0636 23.2046 65.7446 21.8276C66.4472 20.4283 67.3973 19.333 68.5948 18.5417C69.792 17.7285 71.128 17.3092 72.6029 17.2839C73.5495 17.2676 74.4215 17.3958 75.2189 17.6683C76.0163 17.9409 76.705 18.2924 77.2849 18.7229C77.8868 19.1529 78.3458 19.5965 78.662 20.0535C78.9997 20.4881 79.1712 20.8595 79.1765 21.1677L77.9952 21.6173L77.9538 19.2068C77.944 18.6345 78.123 18.158 78.4908 17.7773C78.8582 17.3747 79.3281 17.1684 79.9004 17.1586ZM73.4825 31.9672C74.4511 31.9506 75.2945 31.6939 76.0127 31.1971C76.7308 30.7003 77.2808 30.0303 77.6627 29.187C78.0666 28.3433 78.2597 27.4041 78.2419 26.3694C78.2238 25.3128 77.9984 24.3698 77.5658 23.5405C77.1551 22.7107 76.5825 22.06 75.8477 21.5881C75.1129 21.1163 74.2613 20.8887 73.2927 20.9053C72.3461 20.9216 71.5137 21.1781 70.7956 21.6749C70.0774 22.1716 69.5164 22.8419 69.1125 23.6856C68.7306 24.5289 68.5488 25.4789 68.5669 26.5355C68.5847 27.5702 68.7988 28.5023 69.2094 29.3321C69.6421 30.1614 70.2258 30.812 70.9605 31.2838C71.6953 31.7556 72.536 31.9834 73.4825 31.9672Z" fill="#515151"/>
<path d="M97.748 17.1825C98.3203 17.1727 98.797 17.3627 99.1781 17.7525C99.5587 18.1203 99.754 18.5904 99.7638 19.1628L100.005 33.1964C100.039 35.2217 99.6818 36.8353 98.9317 38.0373C98.204 39.2609 97.2063 40.1478 95.9386 40.698C94.6709 41.2483 93.2445 41.537 91.6596 41.5642C90.9551 41.5763 90.2057 41.5341 89.4113 41.4377C88.617 41.3412 87.9647 41.1872 87.4546 40.9758C86.7893 40.7009 86.3208 40.3457 86.0491 39.9099C85.7997 39.4958 85.748 39.0453 85.8937 38.5583C86.0809 37.9165 86.3926 37.4708 86.8287 37.2211C87.2652 36.9934 87.7271 36.9634 88.2144 37.1312C88.5685 37.2353 89.0336 37.3924 89.6098 37.6027C90.1863 37.8351 90.8488 37.9448 91.5972 37.932C92.6098 37.9146 93.4439 37.7571 94.0994 37.4596C94.7773 37.1837 95.2757 36.7128 95.5945 36.0467C95.9358 35.4022 96.0968 34.5187 96.0775 33.396L96.0395 31.1836L96.7466 31.9642C96.3848 32.6971 95.9219 33.3106 95.3579 33.8047C94.8155 34.2764 94.1611 34.64 93.3948 34.8954C92.6285 35.1507 91.75 35.2869 90.7594 35.3039C89.5927 35.324 88.5645 35.0774 87.6749 34.5642C86.8069 34.0285 86.1226 33.2916 85.6221 32.3533C85.1212 31.3931 84.8601 30.2965 84.8389 29.0638L84.6734 19.4218C84.6636 18.8494 84.8426 18.3729 85.2104 17.9923C85.5778 17.5896 86.0477 17.3834 86.6201 17.3735C87.1924 17.3637 87.6691 17.5537 88.0502 17.9435C88.4308 18.3113 88.6261 18.7814 88.6359 19.3538L88.781 27.807C88.8056 29.2379 89.1311 30.2452 89.7577 30.829C90.4059 31.3904 91.2914 31.6615 92.4141 31.6422C93.1846 31.629 93.8315 31.4747 94.3549 31.1795C94.878 30.8622 95.2777 30.415 95.554 29.8377C95.83 29.2384 95.9608 28.5205 95.9464 27.684L95.8013 19.2308C95.7915 18.6584 95.9705 18.1819 96.3383 17.8013C96.7057 17.3986 97.1756 17.1923 97.748 17.1825Z" fill="#515151"/>
<path d="M110.551 16.6324C111.806 16.6109 112.898 16.7243 113.827 16.9726C114.778 17.2205 115.511 17.5822 116.026 18.0578C116.562 18.5111 116.836 19.0679 116.847 19.7283C116.855 20.1686 116.73 20.5891 116.473 20.9899C116.215 21.3686 115.833 21.5624 115.326 21.5711C114.974 21.5771 114.676 21.5382 114.433 21.4543C114.211 21.348 114.01 21.2193 113.831 21.0682C113.653 20.9172 113.441 20.7777 113.197 20.6497C112.974 20.5214 112.631 20.4282 112.168 20.3701C111.726 20.2896 111.395 20.2513 111.175 20.255C110.052 20.2743 109.099 20.5329 108.315 21.0308C107.553 21.5283 106.97 22.1989 106.566 23.0426C106.161 23.8643 105.969 24.8145 105.987 25.8932C106.005 26.9498 106.231 27.8928 106.663 28.7222C107.117 29.5291 107.723 30.1683 108.48 30.6398C109.259 31.1108 110.143 31.3379 111.134 31.3209C111.684 31.3114 112.157 31.2703 112.552 31.1974C112.947 31.1246 113.276 31.0199 113.538 30.8832C113.843 30.7018 114.115 30.51 114.353 30.3077C114.592 30.1054 114.954 30.0001 115.438 29.9918C116.01 29.982 116.454 30.1616 116.768 30.5305C117.083 30.8774 117.244 31.3151 117.253 31.8434C117.263 32.3937 116.963 32.9053 116.355 33.3782C115.746 33.8291 114.938 34.2063 113.93 34.5098C112.944 34.791 111.868 34.9416 110.701 34.9616C108.962 34.9915 107.447 34.6211 106.157 33.8505C104.866 33.0579 103.856 31.9743 103.128 30.5995C102.422 29.2244 102.054 27.6783 102.025 25.9612C101.994 24.1561 102.33 22.5649 103.033 21.1875C103.757 19.7878 104.762 18.6916 106.048 17.8988C107.355 17.0837 108.856 16.6615 110.551 16.6324Z" fill="#515151"/>
<path d="M127.975 16.3333C129.56 16.3061 130.765 16.6268 131.591 17.2952C132.44 17.9633 133.028 18.867 133.355 20.0064C133.683 21.1238 133.859 22.376 133.882 23.7628L134.028 32.216C134.037 32.7884 133.859 33.2759 133.491 33.6786C133.123 34.0592 132.653 34.2545 132.081 34.2643C131.509 34.2741 131.032 34.0951 130.651 33.7273C130.27 33.3375 130.075 32.8564 130.065 32.2841L129.92 23.8308C129.907 23.1044 129.808 22.4565 129.622 21.8872C129.436 21.2958 129.109 20.828 128.64 20.4837C128.172 20.1394 127.509 19.9747 126.65 19.9894C125.814 20.0038 125.101 20.1922 124.513 20.5546C123.924 20.917 123.481 21.398 123.183 21.9977C122.907 22.575 122.775 23.2268 122.788 23.9533L122.933 32.4065C122.942 32.9789 122.764 33.4664 122.396 33.869C122.028 34.2497 121.558 34.4449 120.986 34.4548C120.414 34.4646 119.937 34.2856 119.556 33.9178C119.175 33.528 118.98 33.0469 118.97 32.4745L118.62 12.0679C118.61 11.4955 118.789 11.019 119.157 10.6384C119.524 10.2357 119.994 10.0295 120.567 10.0196C121.139 10.0098 121.616 10.1998 121.997 10.5896C122.377 10.9574 122.573 11.4275 122.582 11.9999L122.723 20.1889L122.226 20.0984C122.418 19.7207 122.686 19.3198 123.031 18.8955C123.376 18.4492 123.798 18.0345 124.298 17.6516C124.798 17.2687 125.354 16.9619 125.967 16.7311C126.579 16.4784 127.248 16.3458 127.975 16.3333Z" fill="#515151"/>
<path d="M151.186 15.9349C151.758 15.9251 152.235 16.1041 152.615 16.4719C152.996 16.8397 153.191 17.3208 153.202 17.9151L153.441 31.8828C153.451 32.4551 153.272 32.9427 152.905 33.3453C152.537 33.726 152.067 33.9212 151.495 33.931C150.922 33.9409 150.446 33.7619 150.065 33.3941C149.684 33.0042 149.489 32.5232 149.479 31.9508L149.451 30.3328L150.183 30.6175C150.188 30.9037 150.04 31.2586 149.739 31.6821C149.437 32.0836 149.026 32.4871 148.504 32.8924C147.983 33.2977 147.361 33.6497 146.64 33.9483C145.94 34.2246 145.172 34.3699 144.335 34.3843C142.816 34.4103 141.434 34.0487 140.188 33.2994C138.941 32.5281 137.943 31.4662 137.193 30.1138C136.465 28.7391 136.086 27.1601 136.055 25.377C136.024 23.5719 136.349 21.9809 137.03 20.6039C137.733 19.2046 138.683 18.1093 139.88 17.3181C141.077 16.5048 142.413 16.0855 143.888 16.0602C144.835 16.0439 145.707 16.1721 146.504 16.4447C147.302 16.7172 147.99 17.0687 148.57 17.4992C149.172 17.9293 149.631 18.3728 149.947 18.8298C150.285 19.2644 150.457 19.6358 150.462 19.944L149.281 20.3937L149.239 17.9832C149.229 17.4108 149.408 16.9343 149.776 16.5536C150.144 16.151 150.614 15.9447 151.186 15.9349ZM144.768 30.7435C145.737 30.7269 146.58 30.4702 147.298 29.9734C148.016 29.4766 148.566 28.8066 148.948 27.9633C149.352 27.1196 149.545 26.1804 149.527 25.1458C149.509 24.0891 149.284 23.1461 148.851 22.3168C148.441 21.4871 147.868 20.8363 147.133 20.3645C146.398 19.8926 145.547 19.665 144.578 19.6817C143.632 19.6979 142.799 19.9544 142.081 20.4512C141.363 20.948 140.802 21.6182 140.398 22.4619C140.016 23.3052 139.834 24.2552 139.852 25.3118C139.87 26.3465 140.084 27.2787 140.495 28.1084C140.928 28.9377 141.511 29.5883 142.246 30.0601C142.981 30.532 143.821 30.7597 144.768 30.7435Z" fill="#515151"/>
<path d="M156.515 16.504L164.341 16.3697C164.869 16.3606 165.313 16.5292 165.671 16.8753C166.029 17.2215 166.213 17.6588 166.222 18.1871C166.23 18.6934 166.062 19.1257 165.716 19.484C165.369 19.8202 164.932 19.9929 164.403 20.0019L156.577 20.1363C156.049 20.1453 155.606 19.9768 155.248 19.6306C154.889 19.2844 154.706 18.8472 154.697 18.3189C154.688 17.8126 154.857 17.3913 155.203 17.055C155.549 16.6968 155.987 16.5131 156.515 16.504ZM159.977 12.3158C160.55 12.306 161.015 12.4962 161.374 12.8864C161.755 13.2542 161.95 13.7243 161.96 14.2966L162.212 28.9907C162.218 29.2989 162.277 29.5511 162.391 29.7474C162.526 29.9432 162.694 30.0835 162.893 30.1681C163.115 30.2524 163.347 30.2925 163.589 30.2883C163.853 30.2838 164.094 30.2356 164.313 30.1437C164.531 30.0299 164.784 29.9705 165.07 29.9656C165.378 29.9603 165.656 30.0987 165.903 30.3807C166.172 30.6623 166.311 31.0563 166.319 31.5626C166.33 32.179 165.997 32.6912 165.322 33.0992C164.668 33.5067 163.956 33.7171 163.186 33.7304C162.723 33.7383 162.205 33.7142 161.632 33.6579C161.08 33.5793 160.549 33.4013 160.037 33.1238C159.548 32.8239 159.133 32.3686 158.792 31.7579C158.451 31.1472 158.271 30.3025 158.253 29.2238L157.998 14.3646C157.988 13.7923 158.167 13.3158 158.535 12.9351C158.924 12.5321 159.405 12.3256 159.977 12.3158Z" fill="#515151"/>
</g>
<defs>
<clipPath id="clip0_1_72">
<rect width="165" height="48.3059" fill="white" transform="translate(0 2.83203) rotate(-0.983439)"/>
</clipPath>
</defs>
</svg>
