<svg width="196" height="58" viewBox="0 0 196 58" fill="none" xmlns="http://www.w3.org/2000/svg">
<g clip-path="url(#clip0_1_58)">
<path d="M0 28.0336C0 2.30601 9.34619 0 28.0361 0C46.726 0 56.0697 2.80211 56.0697 28.0336C56.0697 53.6615 46.726 56.0672 28.0361 56.0672C9.34619 56.0672 0 52.572 0 28.0336Z" fill="#DDDDDD"/>
<path d="M45.0586 27.1953C45.0611 23.9152 44.116 20.7041 42.3369 17.9484C40.5577 15.1926 38.0204 13.0095 35.03 11.6616C32.0396 10.3136 28.7234 9.85832 25.4804 10.3503C22.2373 10.8424 19.2055 12.2608 16.7494 14.435C14.2934 16.6093 12.5177 19.4467 11.636 22.6062C10.7543 25.7656 10.8041 29.1125 11.7794 32.2443C12.7548 35.3761 14.614 38.1595 17.1337 40.2597C19.6533 42.3599 22.7261 43.6875 25.9823 44.0828V50.6767L38.547 40.5677C38.7115 40.4405 38.876 40.3184 39.0455 40.1763L39.4943 39.8173H39.4419C41.2118 38.2257 42.6267 36.2791 43.5944 34.1044C44.5621 31.9297 45.061 29.5756 45.0586 27.1953ZM28.1687 36.7983C26.9126 36.8007 25.6684 36.5549 24.5077 36.0749C23.347 35.5948 22.2926 34.8901 21.4052 34.0012L23.0954 32.3109C24.4415 33.6544 26.2656 34.4089 28.1674 34.4089C30.0692 34.4089 31.8933 33.6544 33.2394 32.3109L34.9296 34.0012C34.0426 34.8899 32.9886 35.5945 31.8283 36.0746C30.6681 36.5546 29.4243 36.8006 28.1687 36.7983Z" fill="white"/>
<path d="M64.7957 40.0249C64.1158 40.0249 63.5535 39.8026 63.1089 39.358C62.6642 38.8872 62.4419 38.3118 62.4419 37.6318V21.4298C62.4419 20.7498 62.6642 20.1875 63.1089 19.7429C63.5535 19.2722 64.1158 19.0368 64.7957 19.0368C65.4757 19.0368 66.038 19.2722 66.4826 19.7429C66.9272 20.1875 67.1495 20.7498 67.1495 21.4298V25.1175L66.8749 22.489C67.1626 21.8614 67.5288 21.3121 67.9734 20.8414C68.4441 20.3445 68.9672 19.9391 69.5426 19.6252C70.118 19.2852 70.7326 19.0368 71.3864 18.8799C72.0402 18.723 72.6941 18.6445 73.3479 18.6445C74.1325 18.6445 74.7863 18.8668 75.3094 19.3114C75.8586 19.756 76.1332 20.2791 76.1332 20.8806C76.1332 21.7437 75.9109 22.3713 75.4663 22.7636C75.0217 23.1298 74.5379 23.3129 74.0148 23.3129C73.5179 23.3129 73.0602 23.2213 72.6418 23.0383C72.2495 22.8552 71.7918 22.7636 71.2687 22.7636C70.7979 22.7636 70.3141 22.8813 69.8172 23.1167C69.3464 23.3259 68.9018 23.6659 68.4834 24.1367C68.0911 24.6075 67.7642 25.1959 67.5026 25.9021C67.2672 26.582 67.1495 27.3928 67.1495 28.3343V37.6318C67.1495 38.3118 66.9272 38.8872 66.4826 39.358C66.038 39.8026 65.4757 40.0249 64.7957 40.0249Z" fill="#515151"/>
<path d="M94.6057 18.6445C95.2857 18.6445 95.848 18.8668 96.2926 19.3114C96.7372 19.756 96.9595 20.3314 96.9595 21.0375V37.6318C96.9595 38.3118 96.7372 38.8872 96.2926 39.358C95.848 39.8026 95.2857 40.0249 94.6057 40.0249C93.9257 40.0249 93.3634 39.8026 92.9188 39.358C92.4742 38.8872 92.2519 38.3118 92.2519 37.6318V35.7096L93.1149 36.0626C93.1149 36.4026 92.9319 36.8211 92.5657 37.318C92.1996 37.7888 91.7027 38.2595 91.075 38.7303C90.4473 39.201 89.7019 39.6064 88.8389 39.9464C88.002 40.2603 87.0866 40.4172 86.0928 40.4172C84.2882 40.4172 82.6536 39.9595 81.189 39.0441C79.7244 38.1026 78.5606 36.8211 77.6975 35.1996C76.8606 33.5519 76.4422 31.6689 76.4422 29.5504C76.4422 27.4059 76.8606 25.5228 77.6975 23.9013C78.5606 22.2537 79.7113 20.9721 81.1498 20.0568C82.5882 19.1153 84.1836 18.6445 85.9358 18.6445C87.0604 18.6445 88.0935 18.8145 89.035 19.1545C89.9765 19.4945 90.7873 19.926 91.4673 20.4491C92.1734 20.9721 92.7096 21.5083 93.0757 22.0575C93.468 22.5806 93.6642 23.0252 93.6642 23.3913L92.2519 23.9013V21.0375C92.2519 20.3575 92.4742 19.7952 92.9188 19.3506C93.3634 18.8799 93.9257 18.6445 94.6057 18.6445ZM86.6812 36.1019C87.832 36.1019 88.8389 35.8142 89.7019 35.2388C90.565 34.6634 91.2319 33.8788 91.7027 32.885C92.1996 31.8912 92.448 30.7797 92.448 29.5504C92.448 28.2951 92.1996 27.1705 91.7027 26.1767C91.2319 25.1828 90.565 24.3982 89.7019 23.8229C88.8389 23.2475 87.832 22.9598 86.6812 22.9598C85.5566 22.9598 84.5628 23.2475 83.6997 23.8229C82.8367 24.3982 82.1567 25.1828 81.6598 26.1767C81.189 27.1705 80.9536 28.2951 80.9536 29.5504C80.9536 30.7797 81.189 31.8912 81.6598 32.885C82.1567 33.8788 82.8367 34.6634 83.6997 35.2388C84.5628 35.8142 85.5566 36.1019 86.6812 36.1019Z" fill="#515151"/>
<path d="M115.803 19.0368C116.483 19.0368 117.045 19.2722 117.49 19.7429C117.934 20.1875 118.157 20.7498 118.157 21.4298V38.1026C118.157 40.5087 117.699 42.4179 116.784 43.8302C115.894 45.2686 114.691 46.3017 113.174 46.9294C111.657 47.557 109.958 47.8709 108.074 47.8709C107.238 47.8709 106.348 47.8055 105.407 47.6747C104.465 47.544 103.694 47.3478 103.092 47.0863C102.308 46.7463 101.758 46.3148 101.445 45.7917C101.157 45.2948 101.105 44.7586 101.288 44.1833C101.523 43.4248 101.902 42.9017 102.425 42.6141C102.948 42.3525 103.498 42.3264 104.073 42.5356C104.491 42.6664 105.041 42.8625 105.721 43.1241C106.401 43.4117 107.185 43.5556 108.074 43.5556C109.278 43.5556 110.271 43.3856 111.056 43.0456C111.867 42.7318 112.468 42.1825 112.861 41.3979C113.279 40.6395 113.488 39.5933 113.488 38.2595V35.6311L114.312 36.5726C113.867 37.4357 113.305 38.1549 112.625 38.7303C111.971 39.2795 111.187 39.698 110.271 39.9856C109.356 40.2733 108.31 40.4172 107.133 40.4172C105.747 40.4172 104.531 40.1033 103.485 39.4757C102.465 38.8218 101.667 37.9326 101.092 36.808C100.516 35.6573 100.228 34.3496 100.228 32.885V21.4298C100.228 20.7498 100.451 20.1875 100.895 19.7429C101.34 19.2722 101.902 19.0368 102.582 19.0368C103.262 19.0368 103.825 19.2722 104.269 19.7429C104.714 20.1875 104.936 20.7498 104.936 21.4298V31.4727C104.936 33.1727 105.302 34.3757 106.035 35.0819C106.793 35.7619 107.839 36.1019 109.173 36.1019C110.088 36.1019 110.86 35.9319 111.487 35.5919C112.115 35.2257 112.599 34.7027 112.939 34.0227C113.279 33.3165 113.449 32.4665 113.449 31.4727V21.4298C113.449 20.7498 113.671 20.1875 114.116 19.7429C114.561 19.2722 115.123 19.0368 115.803 19.0368Z" fill="#515151"/>
<path d="M131.021 18.6445C132.511 18.6445 133.806 18.8014 134.904 19.1152C136.029 19.4291 136.892 19.8737 137.494 20.4491C138.121 20.9983 138.435 21.6652 138.435 22.4498C138.435 22.9729 138.278 23.4698 137.964 23.9405C137.651 24.3852 137.193 24.6075 136.591 24.6075C136.173 24.6075 135.82 24.5552 135.532 24.4505C135.271 24.3198 135.035 24.1629 134.826 23.9798C134.617 23.7967 134.368 23.6267 134.081 23.4698C133.819 23.3129 133.414 23.1952 132.864 23.1167C132.341 23.0121 131.949 22.9598 131.688 22.9598C130.354 22.9598 129.216 23.2475 128.275 23.8229C127.359 24.3982 126.653 25.1828 126.156 26.1767C125.659 27.1443 125.411 28.2689 125.411 29.5504C125.411 30.8058 125.659 31.9304 126.156 32.9242C126.679 33.8919 127.385 34.6634 128.275 35.2388C129.19 35.8142 130.236 36.1019 131.413 36.1019C132.067 36.1019 132.629 36.0626 133.1 35.9842C133.571 35.9057 133.963 35.788 134.277 35.6311C134.643 35.4219 134.97 35.1996 135.258 34.9642C135.545 34.7288 135.977 34.6111 136.552 34.6111C137.232 34.6111 137.755 34.8334 138.121 35.278C138.487 35.6965 138.671 36.2196 138.671 36.8472C138.671 37.5011 138.304 38.1026 137.572 38.6518C136.84 39.1749 135.872 39.6064 134.669 39.9464C133.492 40.2603 132.211 40.4172 130.825 40.4172C128.758 40.4172 126.967 39.9464 125.45 39.0049C123.933 38.0372 122.756 36.7295 121.919 35.0819C121.109 33.4342 120.703 31.5904 120.703 29.5504C120.703 27.4059 121.135 25.5228 121.998 23.9013C122.887 22.2537 124.103 20.9721 125.646 20.0568C127.215 19.1153 129.007 18.6445 131.021 18.6445Z" fill="#515151"/>
<path d="M151.72 18.6445C153.603 18.6445 155.029 19.0499 155.996 19.8606C156.99 20.6714 157.67 21.7567 158.036 23.1167C158.403 24.4505 158.586 25.9413 158.586 27.5889V37.6318C158.586 38.3118 158.363 38.8872 157.919 39.358C157.474 39.8026 156.912 40.0249 156.232 40.0249C155.552 40.0249 154.99 39.8026 154.545 39.358C154.1 38.8872 153.878 38.3118 153.878 37.6318V27.5889C153.878 26.7259 153.773 25.9544 153.564 25.2744C153.355 24.5682 152.976 24.0059 152.426 23.5875C151.877 23.169 151.093 22.9598 150.073 22.9598C149.079 22.9598 148.229 23.169 147.523 23.5875C146.817 24.0059 146.28 24.5682 145.914 25.2744C145.574 25.9544 145.404 26.7259 145.404 27.5889V37.6318C145.404 38.3118 145.182 38.8872 144.737 39.358C144.293 39.8026 143.73 40.0249 143.051 40.0249C142.371 40.0249 141.808 39.8026 141.364 39.358C140.919 38.8872 140.697 38.3118 140.697 37.6318V13.3877C140.697 12.7077 140.919 12.1454 141.364 11.7008C141.808 11.23 142.371 10.9946 143.051 10.9946C143.73 10.9946 144.293 11.23 144.737 11.7008C145.182 12.1454 145.404 12.7077 145.404 13.3877V23.1167L144.816 22.999C145.051 22.5544 145.378 22.0837 145.797 21.5867C146.215 21.0637 146.725 20.5798 147.327 20.1352C147.928 19.6906 148.595 19.3376 149.327 19.076C150.06 18.7883 150.857 18.6445 151.72 18.6445Z" fill="#515151"/>
<path d="M179.297 18.6445C179.977 18.6445 180.539 18.8668 180.984 19.3114C181.428 19.756 181.65 20.3314 181.65 21.0375V37.6318C181.65 38.3118 181.428 38.8872 180.984 39.358C180.539 39.8026 179.977 40.0249 179.297 40.0249C178.617 40.0249 178.054 39.8026 177.61 39.358C177.165 38.8872 176.943 38.3118 176.943 37.6318V35.7096L177.806 36.0626C177.806 36.4026 177.623 36.8211 177.257 37.318C176.891 37.7888 176.394 38.2595 175.766 38.7303C175.138 39.201 174.393 39.6064 173.53 39.9464C172.693 40.2603 171.778 40.4172 170.784 40.4172C168.979 40.4172 167.345 39.9595 165.88 39.0441C164.415 38.1026 163.252 36.8211 162.388 35.1996C161.552 33.5519 161.133 31.6689 161.133 29.5504C161.133 27.4059 161.552 25.5228 162.388 23.9013C163.252 22.2537 164.402 20.9721 165.841 20.0568C167.279 19.1153 168.875 18.6445 170.627 18.6445C171.751 18.6445 172.784 18.8145 173.726 19.1545C174.667 19.4945 175.478 19.926 176.158 20.4491C176.864 20.9721 177.401 21.5083 177.767 22.0575C178.159 22.5806 178.355 23.0252 178.355 23.3913L176.943 23.9013V21.0375C176.943 20.3575 177.165 19.7952 177.61 19.3506C178.054 18.8799 178.617 18.6445 179.297 18.6445ZM171.372 36.1019C172.523 36.1019 173.53 35.8142 174.393 35.2388C175.256 34.6634 175.923 33.8788 176.394 32.885C176.891 31.8912 177.139 30.7797 177.139 29.5504C177.139 28.2951 176.891 27.1705 176.394 26.1767C175.923 25.1828 175.256 24.3982 174.393 23.8229C173.53 23.2475 172.523 22.9598 171.372 22.9598C170.248 22.9598 169.254 23.2475 168.391 23.8229C167.528 24.3982 166.848 25.1828 166.351 26.1767C165.88 27.1705 165.645 28.2951 165.645 29.5504C165.645 30.7797 165.88 31.8912 166.351 32.885C166.848 33.8788 167.528 34.6634 168.391 35.2388C169.254 35.8142 170.248 36.1019 171.372 36.1019Z" fill="#515151"/>
<path d="M185.615 19.4291H194.912C195.54 19.4291 196.063 19.6383 196.481 20.0568C196.9 20.4752 197.109 20.9983 197.109 21.626C197.109 22.2275 196.9 22.7375 196.481 23.1559C196.063 23.5482 195.54 23.7444 194.912 23.7444H185.615C184.987 23.7444 184.464 23.5352 184.045 23.1167C183.627 22.6983 183.418 22.1752 183.418 21.5475C183.418 20.946 183.627 20.4491 184.045 20.0568C184.464 19.6383 184.987 19.4291 185.615 19.4291ZM189.812 14.5253C190.492 14.5253 191.041 14.7607 191.46 15.2315C191.904 15.6761 192.127 16.2384 192.127 16.9184V34.3757C192.127 34.7419 192.192 35.0427 192.323 35.278C192.48 35.5134 192.676 35.6834 192.911 35.788C193.173 35.8926 193.447 35.9449 193.735 35.9449C194.049 35.9449 194.337 35.8926 194.598 35.788C194.86 35.6573 195.16 35.5919 195.5 35.5919C195.867 35.5919 196.194 35.7619 196.481 36.1019C196.795 36.4419 196.952 36.9126 196.952 37.5142C196.952 38.2464 196.547 38.848 195.736 39.3187C194.951 39.7895 194.101 40.0249 193.186 40.0249C192.637 40.0249 192.022 39.9856 191.342 39.9072C190.688 39.8026 190.061 39.5803 189.459 39.2403C188.884 38.8741 188.4 38.3249 188.008 37.5926C187.615 36.8603 187.419 35.8534 187.419 34.5719V16.9184C187.419 16.2384 187.641 15.6761 188.086 15.2315C188.557 14.7607 189.132 14.5253 189.812 14.5253Z" fill="#515151"/>
</g>
<defs>
<clipPath id="clip0_1_58">
<rect width="196" height="57.3816" fill="white"/>
</clipPath>
</defs>
</svg>
