<svg width="155" height="45" viewBox="0 0 155 45" fill="none" xmlns="http://www.w3.org/2000/svg">
<g clip-path="url(#clip0_1_203)">
<path d="M73.128 26.7341H69.985V21.2773C70.0109 19.5626 69.5764 17.8729 68.7278 16.3881C67.8758 14.9126 66.6563 13.6885 65.1908 12.8378C63.71 11.959 62.0214 11.5022 60.3044 11.5159H55.8371C55.2718 11.5182 54.7303 11.7468 54.3313 12.1518C53.9323 12.5567 53.7082 13.105 53.7083 13.6766C53.7082 14.2482 53.9323 14.7965 54.3313 15.2015C54.7303 15.6065 55.2718 15.8351 55.8371 15.8373H60.2625C61.2118 15.8292 62.1452 16.0842 62.9613 16.5745C63.7709 17.05 64.4439 17.7304 64.9142 18.5488C65.3979 19.3741 65.6473 20.3181 65.635 21.2773V26.7341H47.1959L46.4332 28.9202L47.1959 31.0555H73.1783L73.9159 28.9202L73.128 26.7341Z" fill="#E2E2E2"/>
<path d="M55.5355 39.7408H60.2375V41.8337C60.2369 42.1422 60.3074 42.4467 60.4436 42.7228C60.5798 42.9989 60.7779 43.239 61.022 43.4242C61.2662 43.6093 61.5497 43.7342 61.85 43.7891C62.1503 43.844 62.4592 43.8272 62.7519 43.7402C63.1599 43.6195 63.5183 43.3686 63.7736 43.025C64.0289 42.6814 64.1674 42.2635 64.1684 41.8337V36.0464H55.5355C55.051 36.0464 54.5862 36.241 54.2436 36.5874C53.9009 36.9338 53.7084 37.4037 53.7084 37.8936C53.7073 38.1365 53.7538 38.3772 53.8452 38.6018C53.9366 38.8264 54.0712 39.0305 54.2411 39.2023C54.411 39.374 54.6128 39.51 54.835 39.6025C55.0572 39.6949 55.2953 39.7419 55.5355 39.7408Z" fill="#F200D0"/>
<path d="M24.3566 13.0581H17.6096C16.5912 13.0581 15.7657 13.8908 15.7657 14.918C15.7657 15.9452 16.5912 16.7779 17.6096 16.7779H24.3566C25.375 16.7779 26.2006 15.9452 26.2006 14.918C26.2006 13.8908 25.375 13.0581 24.3566 13.0581Z" fill="#E2E2E2"/>
<path d="M47.9586 28.9285L47.1707 31.0553C45.7385 31.0573 44.3258 30.7195 43.0462 30.069C41.7667 29.4186 40.6559 28.4736 39.8034 27.3101C39.0441 28.2891 38.1085 29.1142 37.0459 29.7419C35.5761 30.6165 33.8986 31.0705 32.1931 31.0553H9.70576C8.00027 31.0705 6.3228 30.6165 4.85292 29.7419C3.3887 28.8857 2.16984 27.6593 1.31597 26.1831C0.445393 24.6986 -0.00946528 23.0028 8.24212e-05 21.277V16.032C8.24212e-05 15.4522 0.227907 14.8962 0.633436 14.4862C1.03897 14.0762 1.58898 13.8459 2.16249 13.8459C2.73599 13.8459 3.28601 14.0762 3.69154 14.4862C4.09707 14.8962 4.32489 15.4522 4.32489 16.032V21.277C4.31934 22.2353 4.56548 23.178 5.03815 24.0086C5.51083 24.8393 6.19312 25.5283 7.01533 26.0052C7.82883 26.4944 8.75922 26.7494 9.70576 26.7424H31.9752C32.9016 26.7553 33.8178 26.5462 34.6489 26.1323C35.5313 25.6736 36.2713 24.9776 36.7874 24.1209C37.3036 23.2642 37.5758 22.2801 37.574 21.277V16.0151C37.574 15.4398 37.8 14.888 38.2024 14.4812C38.6048 14.0744 39.1506 13.8459 39.7196 13.8459C40.0049 13.8402 40.2884 13.8922 40.5536 13.9987C40.8188 14.1052 41.0603 14.264 41.264 14.466C41.4677 14.668 41.6295 14.9091 41.7399 15.175C41.8504 15.441 41.9072 15.7266 41.9072 16.0151V21.277C41.9193 22.2405 42.1731 23.1851 42.6447 24.0224C43.1021 24.8416 43.7639 25.5252 44.5641 26.0052C45.3621 26.4946 46.2792 26.7499 47.2126 26.7424L47.9586 28.9285Z" fill="#E2E2E2"/>
<path d="M77.0756 36.1987H70.3286C69.3102 36.1987 68.4846 37.0314 68.4846 38.0586C68.4846 39.0858 69.3102 39.9185 70.3286 39.9185H77.0756C78.094 39.9185 78.9195 39.0858 78.9195 38.0586C78.9195 37.0314 78.094 36.1987 77.0756 36.1987Z" fill="#E2E2E2"/>
<path d="M80.6209 13.846C80.3366 13.8448 80.0549 13.9006 79.792 14.0101C79.5292 14.1196 79.2904 14.2805 79.0893 14.4838C78.8883 14.687 78.7291 14.9284 78.6208 15.1942C78.5125 15.4599 78.4573 15.7447 78.4585 16.0321V21.2771C78.4657 22.2318 78.2239 23.1715 77.7574 24.0015C77.291 24.8316 76.6164 25.5227 75.8015 26.0053C74.9853 26.4943 74.0515 26.7464 73.1027 26.734H73.0273L72.34 28.9201L72.9183 31.0554H73.0692C74.783 31.0735 76.4693 30.6195 77.9472 29.742C79.4083 28.8779 80.626 27.6498 81.4841 26.1747C82.3531 24.6931 82.8052 22.9996 82.7916 21.2771V16.0321C82.7927 15.7454 82.7378 15.4613 82.6301 15.1961C82.5223 14.931 82.3638 14.6899 82.1637 14.4868C81.9636 14.2837 81.7258 14.1225 81.4639 14.0125C81.202 13.9026 80.9212 13.846 80.6376 13.846H80.6209Z" fill="#E2E2E2"/>
<path d="M92.2376 3.01694C92.2376 1.80957 91.2694 0.830811 90.0752 0.830811C88.8809 0.830811 87.9128 1.80957 87.9128 3.01694V28.8692C87.9128 30.0766 88.8809 31.0553 90.0752 31.0553C91.2694 31.0553 92.2376 30.0766 92.2376 28.8692V3.01694Z" fill="#E2E2E2"/>
<path d="M99.8313 18.4216C99.5459 18.4205 99.2631 18.4765 98.9992 18.5864C98.7354 18.6963 98.4956 18.8579 98.2938 19.0619C98.092 19.2659 97.9322 19.5083 97.8235 19.7751C97.7148 20.0419 97.6594 20.3277 97.6605 20.6163V26.2002C97.6605 26.251 97.6605 26.2934 97.6605 26.3443V30.0471C97.6388 31.2113 97.3478 32.3541 96.8108 33.3841C96.2737 34.4141 95.5055 35.3026 94.5678 35.9785C94.2296 36.2475 93.9848 36.6182 93.8688 37.0371C93.7528 37.456 93.7716 37.9013 93.9224 38.3087C94.0374 38.6006 94.2182 38.8615 94.4502 39.0707C94.6822 39.2798 94.9592 39.4315 95.2593 39.5137C95.5593 39.5959 95.8742 39.6064 96.179 39.5443C96.4837 39.4822 96.77 39.3493 97.0151 39.156C100.334 36.6083 101.991 33.5551 101.985 29.9963V26.251V20.6163C101.986 20.3292 101.932 20.0447 101.824 19.779C101.716 19.5133 101.558 19.2717 101.358 19.0679C101.158 18.8641 100.92 18.7022 100.658 18.5913C100.396 18.4804 100.115 18.4228 99.8313 18.4216Z" fill="#E2E2E2"/>
<path d="M99.8311 14.9223C99.2576 14.9223 98.7076 15.1526 98.3021 15.5626C97.8966 15.9726 97.6687 16.5286 97.6687 17.1084V24.2854C97.6687 24.5736 97.7249 24.8589 97.834 25.1252C97.9431 25.3915 98.103 25.6334 98.3045 25.8372C98.5061 26.041 98.7454 26.2026 99.0088 26.3129C99.2722 26.4232 99.5545 26.48 99.8395 26.48C100.415 26.48 100.967 26.2487 101.374 25.8372C101.782 25.4256 102.01 24.8674 102.01 24.2854V18.6929C102.015 18.6478 102.015 18.6024 102.01 18.5573V17.1084C102.011 16.8196 101.956 16.5334 101.846 16.2665C101.737 15.9997 101.576 15.7575 101.374 15.554C101.171 15.3506 100.93 15.1899 100.665 15.0815C100.4 14.973 100.117 14.9189 99.8311 14.9223Z" fill="#E2E2E2"/>
</g>
<path d="M110.351 22.3237C110.351 1.83632 117.793 0 132.676 0C147.56 0 155 2.23137 155 22.3237C155 42.7316 147.56 44.6473 132.676 44.6473C117.793 44.6473 110.351 41.864 110.351 22.3237Z" fill="#F200D0"/>
<path d="M146.232 21.656C146.234 19.0439 145.481 16.4869 144.064 14.2925C142.648 12.098 140.627 10.3595 138.246 9.28617C135.865 8.21279 133.224 7.85021 130.641 8.24201C128.059 8.63382 125.644 9.76334 123.689 11.4947C121.733 13.2261 120.319 15.4856 119.617 18.0016C118.915 20.5175 118.954 23.1827 119.731 25.6766C120.508 28.1705 121.988 30.3869 123.995 32.0594C126.001 33.7318 128.448 34.789 131.041 35.1038V40.3546L141.046 32.3046C141.177 32.2034 141.308 32.1061 141.443 31.993L141.801 31.7071H141.759C143.169 30.4396 144.295 28.8896 145.066 27.1578C145.836 25.4261 146.234 23.5515 146.232 21.656ZM132.782 29.303C131.782 29.305 130.791 29.1092 129.867 28.7269C128.942 28.3447 128.103 27.7835 127.396 27.0756L128.742 25.7296C129.814 26.7995 131.267 27.4003 132.781 27.4003C134.295 27.4003 135.748 26.7995 136.82 25.7296L138.166 27.0756C137.46 27.7833 136.62 28.3444 135.696 28.7267C134.772 29.1089 133.782 29.3048 132.782 29.303Z" fill="white"/>
<defs>
<clipPath id="clip0_1_203">
<rect width="102.01" height="42.9855" fill="white" transform="translate(0.000179291 0.830811)"/>
</clipPath>
</defs>
</svg>
