<svg width="117" height="52" viewBox="0 0 117 52" fill="none" xmlns="http://www.w3.org/2000/svg">
<path d="M5.6077 35.4112C5.03534 35.4018 4.56509 35.207 4.19697 34.8266C3.82921 34.4243 3.65 33.9369 3.65935 33.3646L3.88213 19.7269C3.89148 19.1546 4.08633 18.6843 4.46668 18.3162C4.84739 17.9261 5.32393 17.7357 5.89629 17.745C6.46865 17.7544 6.93872 17.9602 7.30648 18.3626C7.6746 18.7429 7.85399 19.2193 7.84464 19.7916L7.79393 22.8956L7.59893 20.6794C7.84971 20.1551 8.16546 19.6978 8.54617 19.3077C8.94925 18.8959 9.39511 18.5618 9.88373 18.3056C10.3727 18.0273 10.8935 17.8266 11.446 17.7035C11.9985 17.5805 12.5499 17.5234 13.1002 17.5324C13.7607 17.5432 14.308 17.7393 14.7421 18.1207C15.1983 18.5025 15.4223 18.9466 15.414 19.4529C15.4021 20.1793 15.2064 20.7046 14.8267 21.0287C14.4475 21.3308 14.0377 21.4782 13.5974 21.4711C13.1791 21.4642 12.7952 21.3809 12.4455 21.221C12.1178 21.0615 11.7338 20.9782 11.2935 20.971C10.8972 20.9645 10.4884 21.0569 10.0669 21.2482C9.66774 21.4179 9.28883 21.6979 8.93013 22.0884C8.59345 22.4793 8.31018 22.9701 8.08033 23.5609C7.87286 24.13 7.76265 24.8108 7.7497 25.6033L7.62186 33.4293C7.61251 34.0016 7.41748 34.4829 7.03677 34.873C6.65642 35.2412 6.18006 35.4205 5.6077 35.4112Z" fill="#515151"/>
<path d="M30.9934 17.8247C31.5658 17.834 32.036 18.0289 32.4042 18.4092C32.7723 18.7896 32.9515 19.277 32.9418 19.8713L32.7136 33.8392C32.7043 34.4115 32.5092 34.8928 32.1285 35.2829C31.7482 35.6511 31.2718 35.8304 30.6995 35.8211C30.1271 35.8117 29.6569 35.6169 29.2887 35.2365C28.921 34.8342 28.7418 34.3468 28.7511 33.7744L28.7775 32.1564L29.4991 32.4655C29.4945 32.7517 29.3346 33.1014 29.0196 33.5146C28.7049 33.9058 28.2802 34.2952 27.7454 34.6829C27.2106 35.0705 26.5776 35.4014 25.8465 35.6758C25.1377 35.9284 24.3651 36.0479 23.5285 36.0342C22.0096 36.0094 20.64 35.6017 19.4198 34.8111C18.2 33.9984 17.238 32.9038 16.5338 31.527C15.852 30.1286 15.5257 28.5379 15.5548 26.7548C15.5843 24.9496 15.9624 23.3704 16.6892 22.017C17.4383 20.642 18.4245 19.5791 19.6479 18.8284C20.8716 18.0557 22.2209 17.6814 23.6958 17.7055C24.6424 17.7209 25.5096 17.8782 26.2975 18.1774C27.0853 18.4765 27.7618 18.8509 28.327 19.3005C28.9141 19.7505 29.3581 20.2091 29.6587 20.6765C29.9817 21.1222 30.1407 21.4991 30.1357 21.8073L28.9399 22.2171L28.9793 19.8066C28.9886 19.2342 29.1835 18.764 29.5638 18.3959C29.9445 18.0057 30.4211 17.8153 30.9934 17.8247ZM24.0832 32.41C25.0518 32.4259 25.9033 32.1976 26.6377 31.7251C27.372 31.2527 27.9442 30.6014 28.3541 29.7714C28.786 28.9417 29.0104 28.0095 29.0273 26.9748C29.0446 25.9182 28.8509 24.9682 28.4463 24.1248C28.0637 23.2818 27.5132 22.6122 26.7946 22.116C26.0761 21.6199 25.2325 21.3639 24.2639 21.348C23.3173 21.3326 22.4768 21.5611 21.7424 22.0335C21.0081 22.5059 20.4249 23.157 19.993 23.9867C19.5831 24.8168 19.3695 25.7601 19.3522 26.8168C19.3353 27.8514 19.5181 28.7903 19.9007 29.6333C20.3053 30.4766 20.8669 31.1464 21.5855 31.6426C22.304 32.1388 23.1366 32.3946 24.0832 32.41Z" fill="#515151"/>
<path d="M48.8302 18.4464C49.4025 18.4557 49.8726 18.6616 50.2404 19.0639C50.6085 19.4443 50.7879 19.9207 50.7785 20.493L50.5493 34.5269C50.5162 36.5522 50.1047 38.1529 49.3148 39.3291C48.5465 40.5276 47.5197 41.3806 46.2342 41.8881C44.9488 42.3956 43.5136 42.6364 41.9286 42.6105C41.2241 42.599 40.4766 42.5317 39.6859 42.4087C38.8951 42.2857 38.2484 42.11 37.7457 41.8815C37.09 41.5846 36.6336 41.2138 36.3766 40.7692C36.1413 40.347 36.1047 39.895 36.2667 39.4132C36.4752 38.778 36.8016 38.343 37.2458 38.108C37.6897 37.895 38.1524 37.8806 38.6338 38.0646C38.9842 38.1804 39.4438 38.3531 40.0126 38.5826C40.581 38.8341 41.2394 38.9659 41.9879 38.9782C43.0006 38.9947 43.8394 38.8653 44.5045 38.5899C45.1913 38.3369 45.7051 37.8829 46.0461 37.2278C46.4088 36.5952 46.5993 35.7175 46.6176 34.5948L46.6538 32.3824L47.3343 33.1862C46.9481 33.9066 46.465 34.5042 45.8847 34.9792C45.3268 35.4325 44.6606 35.7739 43.8862 36.0035C43.1117 36.233 42.2292 36.3397 41.2386 36.3236C40.0718 36.3045 39.0525 36.0236 38.1806 35.4809C37.331 34.9165 36.6718 34.1571 36.203 33.2026C35.7345 32.226 35.5103 31.1214 35.5305 29.8886L35.688 20.2465C35.6973 19.6741 35.8922 19.2039 36.2725 18.8358C36.6532 18.4456 37.1298 18.2552 37.7021 18.2646C38.2745 18.2739 38.7446 18.4798 39.1123 18.8822C39.4804 19.2625 39.6598 19.7389 39.6505 20.3112L39.5124 28.7646C39.489 30.1955 39.7807 31.2132 40.3873 31.8176C41.0164 32.4004 41.8923 32.701 43.015 32.7193C43.7855 32.7319 44.4372 32.5994 44.9702 32.3219C45.5036 32.0223 45.9181 31.5887 46.2136 31.021C46.5095 30.4313 46.6643 29.7182 46.6779 28.8816L46.816 20.4283C46.8254 19.8559 47.0202 19.3857 47.4006 19.0176C47.7813 18.6274 48.2578 18.437 48.8302 18.4464Z" fill="#515151"/>
<path d="M61.6448 18.3254C62.8996 18.3459 63.9872 18.4958 64.9074 18.7751C65.8497 19.0547 66.5701 19.4408 67.0685 19.9334C67.5893 20.4043 67.8443 20.97 67.8335 21.6304C67.8263 22.0707 67.6874 22.4868 67.4167 22.8787C67.1464 23.2486 66.7581 23.4295 66.2518 23.4212C65.8996 23.4154 65.6031 23.3666 65.3624 23.2745C65.1441 23.1609 64.9481 23.0256 64.7745 22.8686C64.6009 22.7116 64.3941 22.5651 64.1541 22.4291C63.9361 22.2934 63.5965 22.1887 63.1353 22.1151C62.6965 22.0199 62.367 21.9705 62.1469 21.9669C61.0241 21.9485 60.0626 22.1751 59.2622 22.6464C58.4838 23.1181 57.8786 23.7688 57.4467 24.5985C57.0151 25.4062 56.7905 26.3494 56.7729 27.4281C56.7556 28.4848 56.9493 29.4348 57.3539 30.2781C57.7809 31.0998 58.3646 31.759 59.1052 32.2555C59.8678 32.7524 60.7444 33.0089 61.735 33.0251C62.2853 33.0341 62.7592 33.0088 63.1565 32.9492C63.5538 32.8897 63.8857 32.796 64.152 32.6682C64.4631 32.4972 64.7413 32.3145 64.9867 32.1204C65.2321 31.9262 65.5969 31.8331 66.0812 31.841C66.6536 31.8503 67.0908 32.0446 67.3929 32.4239C67.6953 32.7812 67.8423 33.224 67.8336 33.7523C67.8246 34.3026 67.5082 34.8039 66.8842 35.2562C66.2606 35.6864 65.4402 36.0363 64.4229 36.3059C63.4279 36.5539 62.3471 36.6684 61.1804 36.6493C59.4413 36.6209 57.9398 36.2 56.6759 35.3867C55.4124 34.5513 54.4398 33.4344 53.758 32.036C53.0982 30.638 52.7823 29.0804 52.8104 27.3634C52.8399 25.5582 53.229 23.9791 53.9777 22.6261C54.7489 21.2515 55.7901 20.1895 57.1016 19.4403C58.4353 18.6693 59.9498 18.2977 61.6448 18.3254Z" fill="#515151"/>
<path d="M79.0683 18.61C80.6533 18.6359 81.8475 18.9967 82.6508 19.6925C83.4762 20.3886 84.0336 21.3115 84.3231 22.4613C84.613 23.589 84.7466 24.8463 84.7239 26.2332L84.5858 34.6866C84.5765 35.2589 84.3815 35.7402 84.0007 36.1303C83.6204 36.4984 83.144 36.6778 82.5717 36.6685C81.9993 36.6591 81.5291 36.4643 81.161 36.0839C80.7932 35.6816 80.614 35.1942 80.6233 34.6218L80.7614 26.1685C80.7733 25.442 80.6958 24.7912 80.5291 24.2159C80.3627 23.6187 80.0512 23.1402 79.5947 22.7804C79.1381 22.4206 78.4806 22.2337 77.6221 22.2197C76.7855 22.206 76.0672 22.3704 75.4671 22.713C74.8669 23.0555 74.4079 23.5214 74.09 24.1107C73.7945 24.6784 73.6408 25.3255 73.6289 26.052L73.4908 34.5053C73.4815 35.0777 73.2864 35.5589 72.9057 35.9491C72.5254 36.3172 72.049 36.4966 71.4767 36.4872C70.9043 36.4779 70.4341 36.283 70.0659 35.9027C69.6982 35.5003 69.519 35.0129 69.5283 34.4406L69.8617 14.0337C69.871 13.4613 70.0659 12.9911 70.4462 12.6229C70.8269 12.2328 71.3035 12.0424 71.8758 12.0518C72.4482 12.0611 72.9183 12.267 73.286 12.6693C73.6541 13.0497 73.8335 13.526 73.8242 14.0984L73.6904 22.2876L73.1967 22.1804C73.4009 21.8094 73.6826 21.4177 74.0416 21.0052C74.4011 20.5706 74.837 20.1704 75.3494 19.8044C75.8619 19.4385 76.4281 19.1504 77.0481 18.9404C77.6684 18.7083 78.3418 18.5982 79.0683 18.61Z" fill="#515151"/>
<path d="M102.28 18.9892C102.852 18.9986 103.322 19.1934 103.691 19.5738C104.059 19.9541 104.238 20.4415 104.228 21.0359L104 35.0037C103.991 35.5761 103.796 36.0573 103.415 36.4475C103.035 36.8156 102.558 36.995 101.986 36.9856C101.414 36.9763 100.943 36.7814 100.575 36.4011C100.207 35.9987 100.028 35.5113 100.038 34.939L100.064 33.321L100.786 33.63C100.781 33.9162 100.621 34.2659 100.306 34.6791C99.9914 35.0703 99.5666 35.4598 99.0318 35.8474C98.497 36.235 97.864 36.566 97.1329 36.8403C96.4241 37.0929 95.6515 37.2124 94.815 37.1988C93.296 37.174 91.9264 36.7662 90.7062 35.9756C89.4864 35.163 88.5244 34.0683 87.8202 32.6916C87.1385 31.2932 86.8121 29.7024 86.8412 27.9193C86.8707 26.1141 87.2489 24.5349 87.9756 23.1815C88.7247 21.8065 89.7109 20.7437 90.9343 19.993C92.158 19.2202 93.5073 18.8459 94.9823 18.87C95.9289 18.8855 96.7961 19.0428 97.5839 19.3419C98.3717 19.641 99.0482 20.0154 99.6134 20.465C100.201 20.915 100.644 21.3737 100.945 21.841C101.268 22.2867 101.427 22.6636 101.422 22.9718L100.226 23.3817L100.266 20.9711C100.275 20.3988 100.47 19.9285 100.85 19.5604C101.231 19.1703 101.708 18.9799 102.28 18.9892ZM95.3696 33.5746C96.3382 33.5904 97.1897 33.3621 97.9241 32.8896C98.6585 32.4172 99.2306 31.7659 99.6405 30.9359C100.072 30.1062 100.297 29.174 100.314 28.1394C100.331 27.0827 100.137 26.1327 99.7328 25.2893C99.3502 24.4463 98.7996 23.7767 98.0811 23.2806C97.3625 22.7844 96.5189 22.5284 95.5503 22.5126C94.6037 22.4971 93.7632 22.7256 93.0289 23.198C92.2945 23.6705 91.7114 24.3215 91.2794 25.1512C90.8695 25.9813 90.6559 26.9246 90.6387 27.9813C90.6218 29.016 90.8046 29.9548 91.1872 30.7978C91.5918 31.6412 92.1534 32.3109 92.8719 32.8071C93.5904 33.3033 94.423 33.5591 95.3696 33.5746Z" fill="#515151"/>
<path d="M107.587 19.7365L115.413 19.8644C115.941 19.873 116.379 20.0563 116.725 20.4143C117.072 20.7722 117.241 21.2154 117.232 21.7437C117.224 22.2501 117.041 22.6765 116.683 23.0229C116.325 23.3474 115.882 23.5053 115.354 23.4967L107.528 23.3688C106.999 23.3602 106.562 23.1769 106.215 22.8189C105.869 22.4609 105.7 22.0178 105.709 21.4894C105.717 20.9831 105.9 20.5677 106.258 20.2433C106.616 19.8968 107.059 19.7279 107.587 19.7365ZM111.188 15.6666C111.76 15.676 112.219 15.8816 112.565 16.2837C112.933 16.664 113.112 17.1404 113.103 17.7127L112.863 32.407C112.858 32.7152 112.909 32.9693 113.016 33.1692C113.145 33.3695 113.307 33.5153 113.504 33.6066C113.723 33.6982 113.953 33.746 114.195 33.75C114.459 33.7543 114.702 33.7142 114.924 33.6298C115.146 33.5233 115.4 33.4724 115.686 33.4771C115.994 33.4821 116.267 33.6297 116.505 33.9198C116.764 34.2103 116.89 34.6087 116.881 35.115C116.871 35.7314 116.522 36.2322 115.833 36.6173C115.166 37.0027 114.447 37.1892 113.677 37.1766C113.215 37.169 112.698 37.1276 112.126 37.0522C111.578 36.9551 111.052 36.7594 110.551 36.4649C110.071 36.1488 109.672 35.6799 109.352 35.0581C109.031 34.4363 108.88 33.5861 108.898 32.5074L109.141 17.648C109.15 17.0756 109.345 16.6054 109.725 16.2373C110.128 15.8475 110.615 15.6573 111.188 15.6666Z" fill="#515151"/>
</svg>
